<svg width="37" height="36" viewBox="0 0 37 36" fill="none" xmlns="http://www.w3.org/2000/svg">
<rect x="0.5" width="36" height="36" rx="18" fill="#8B04F5"/>
<path d="M26.7237 23.275C26.7237 23.575 26.6537 23.8834 26.505 24.1834C26.3562 24.4834 26.1638 24.7667 25.91 25.0334C25.4813 25.4834 25.0087 25.8084 24.475 26.0167C23.95 26.225 23.3813 26.3334 22.7688 26.3334C21.8763 26.3334 20.9225 26.1334 19.9162 25.725C18.91 25.3167 17.9037 24.7667 16.9062 24.075C15.9 23.375 14.9462 22.6 14.0362 21.7417C13.135 20.875 12.3212 19.9667 11.595 19.0167C10.8775 18.0667 10.3 17.1167 9.88 16.175C9.46 15.225 9.25 14.3167 9.25 13.45C9.25 12.8834 9.355 12.3417 9.565 11.8417C9.775 11.3334 10.1075 10.8667 10.5712 10.45C11.1312 9.92502 11.7438 9.66669 12.3913 9.66669C12.6363 9.66669 12.8813 9.71669 13.1 9.81669C13.3275 9.91669 13.5288 10.0667 13.6863 10.2834L15.7163 13.0084C15.8738 13.2167 15.9875 13.4084 16.0662 13.5917C16.145 13.7667 16.1888 13.9417 16.1888 14.1C16.1888 14.3 16.1275 14.5 16.005 14.6917C15.8913 14.8834 15.725 15.0834 15.515 15.2834L14.85 15.9417C14.7537 16.0334 14.71 16.1417 14.71 16.275C14.71 16.3417 14.7188 16.4 14.7363 16.4667C14.7625 16.5334 14.7888 16.5834 14.8063 16.6334C14.9638 16.9084 15.235 17.2667 15.62 17.7C16.0137 18.1334 16.4337 18.575 16.8887 19.0167C17.3612 19.4584 17.8162 19.8667 18.28 20.2417C18.735 20.6084 19.1112 20.8584 19.4087 21.0084C19.4525 21.025 19.505 21.05 19.5662 21.075C19.6362 21.1 19.7062 21.1084 19.785 21.1084C19.9337 21.1084 20.0475 21.0584 20.1437 20.9667L20.8088 20.3417C21.0275 20.1334 21.2375 19.975 21.4388 19.875C21.64 19.7584 21.8412 19.7 22.06 19.7C22.2262 19.7 22.4013 19.7334 22.5938 19.8084C22.7862 19.8834 22.9875 19.9917 23.2063 20.1334L26.1025 22.0917C26.33 22.2417 26.4875 22.4167 26.5837 22.625C26.6712 22.8334 26.7237 23.0417 26.7237 23.275Z" stroke="white" stroke-miterlimit="10"/>
<path d="M23.6875 15.5C23.6875 15 23.2762 14.2334 22.6637 13.6084C22.1037 13.0334 21.36 12.5834 20.625 12.5834" stroke="white" stroke-linecap="round" stroke-linejoin="round"/>
<path d="M26.75 15.5C26.75 12.275 24.0112 9.66669 20.625 9.66669" stroke="white" stroke-linecap="round" stroke-linejoin="round"/>
</svg>
