<svg width="39" height="39" viewBox="0 0 39 39" fill="none" xmlns="http://www.w3.org/2000/svg">
<circle cx="19.5" cy="19.5" r="19.5" fill="#8358FF"/>
<path d="M26.3475 14.625C26.3475 18.4068 23.2817 21.4725 19.4999 21.4725C15.7181 21.4725 12.6523 18.4068 12.6523 14.625C12.6523 10.8432 15.7181 7.7774 19.4999 7.7774C23.2817 7.7774 26.3475 10.8432 26.3475 14.625Z" stroke="#FAF8F5" stroke-width="2" stroke-miterlimit="10"/>
<mask id="path-3-inside-1_1_811" fill="white">
<path d="M7.60449 29.338C8.81052 27.2505 10.5446 25.5171 12.6327 24.312C14.7207 23.1069 17.0891 22.4725 19.4999 22.4725C21.9108 22.4726 24.2792 23.107 26.3672 24.3122C28.4552 25.5173 30.1893 27.2507 31.3952 29.3382"/>
</mask>
<path d="M5.87273 28.3375C5.32017 29.2939 5.64757 30.5172 6.60399 31.0698C7.56042 31.6223 8.78369 31.2949 9.33625 30.3385L5.87273 28.3375ZM29.6635 30.3387C30.216 31.2951 31.4393 31.6226 32.3957 31.07C33.3521 30.5175 33.6796 29.2942 33.127 28.3378L29.6635 30.3387ZM9.33625 30.3385C10.3667 28.5549 11.8484 27.0739 13.6324 26.0442L11.6329 22.5798C9.24092 23.9604 7.25433 25.9461 5.87273 28.3375L9.33625 30.3385ZM13.6324 26.0442C15.4165 25.0146 17.4401 24.4725 19.4999 24.4725L19.5 20.4725C16.7381 20.4725 14.0249 21.1993 11.6329 22.5798L13.6324 26.0442ZM19.4999 24.4725C21.5598 24.4726 23.5834 25.0146 25.3674 26.0443L27.3669 22.58C24.975 21.1994 22.2618 20.4726 19.5 20.4725L19.4999 24.4725ZM25.3674 26.0443C27.1514 27.074 28.6331 28.5551 29.6635 30.3387L33.127 28.3378C31.7455 25.9463 29.7589 23.9606 27.3669 22.58L25.3674 26.0443Z" fill="#FAF8F5" mask="url(#path-3-inside-1_1_811)"/>
</svg>
