<svg width="37" height="36" viewBox="0 0 37 36" fill="none" xmlns="http://www.w3.org/2000/svg">
<rect x="0.5" width="36" height="36" rx="18" fill="#424B57"/>
<path d="M18.9417 25.0167H13.6751C11.0417 25.0167 10.1667 23.2667 10.1667 21.5083V14.4917C10.1667 11.8583 11.0417 10.9833 13.6751 10.9833H18.9417C21.5751 10.9833 22.4501 11.8583 22.4501 14.4917V21.5083C22.4501 24.1417 21.5667 25.0167 18.9417 25.0167Z" stroke="white" stroke-linecap="round" stroke-linejoin="round"/>
<path d="M24.7666 22.25L22.45 20.625V15.3667L24.7666 13.7417C25.9 12.95 26.8333 13.4333 26.8333 14.825V21.175C26.8333 22.5667 25.9 23.05 24.7666 22.25Z" stroke="white" stroke-linecap="round" stroke-linejoin="round"/>
<path d="M18.0833 17.1667C18.7736 17.1667 19.3333 16.607 19.3333 15.9167C19.3333 15.2263 18.7736 14.6667 18.0833 14.6667C17.3929 14.6667 16.8333 15.2263 16.8333 15.9167C16.8333 16.607 17.3929 17.1667 18.0833 17.1667Z" stroke="white" stroke-linecap="round" stroke-linejoin="round"/>
</svg>
