<svg width="110" height="16" viewBox="0 0 110 16" fill="none" xmlns="http://www.w3.org/2000/svg">
<path d="M21.4773 4.59801V3.27273H28.4403V4.59801H25.7429V12H24.1747V4.59801H21.4773ZM30.7074 12.1321C30.2926 12.1321 29.919 12.0582 29.5866 11.9105C29.2571 11.7599 28.9957 11.5384 28.8026 11.2457C28.6122 10.9531 28.517 10.5923 28.517 10.1634C28.517 9.79403 28.5852 9.48864 28.7216 9.24716C28.858 9.00568 29.044 8.8125 29.2798 8.66761C29.5156 8.52273 29.7813 8.41335 30.0767 8.33949C30.375 8.26278 30.6832 8.20739 31.0014 8.1733C31.3849 8.13352 31.696 8.09801 31.9347 8.06676C32.1733 8.03267 32.3466 7.98153 32.4545 7.91335C32.5653 7.84233 32.6207 7.73295 32.6207 7.58523V7.55966C32.6207 7.23864 32.5256 6.99006 32.3352 6.81392C32.1449 6.63778 31.8707 6.54972 31.5128 6.54972C31.1349 6.54972 30.8352 6.6321 30.6136 6.79688C30.3949 6.96165 30.2472 7.15625 30.1705 7.38068L28.7301 7.17614C28.8438 6.77841 29.0313 6.44602 29.2926 6.17898C29.554 5.90909 29.8736 5.70739 30.2514 5.57386C30.6293 5.4375 31.0469 5.36932 31.5043 5.36932C31.8196 5.36932 32.1335 5.40625 32.446 5.48011C32.7585 5.55398 33.044 5.67614 33.3026 5.84659C33.5611 6.0142 33.7685 6.2429 33.9247 6.53267C34.0838 6.82244 34.1634 7.18466 34.1634 7.61932V12H32.6804V11.1009H32.6293C32.5355 11.2827 32.4034 11.4531 32.233 11.6122C32.0653 11.7685 31.8537 11.8949 31.598 11.9915C31.3452 12.0852 31.0483 12.1321 30.7074 12.1321ZM31.108 10.9986C31.4176 10.9986 31.6861 10.9375 31.9134 10.8153C32.1406 10.6903 32.3153 10.5256 32.4375 10.321C32.5625 10.1165 32.625 9.89347 32.625 9.65199V8.88068C32.5767 8.92045 32.4943 8.95739 32.3778 8.99148C32.2642 9.02557 32.1364 9.0554 31.9943 9.08097C31.8523 9.10653 31.7116 9.12926 31.5724 9.14915C31.4332 9.16903 31.3125 9.18608 31.2102 9.20028C30.9801 9.23153 30.7741 9.28267 30.5923 9.35369C30.4105 9.42472 30.267 9.52415 30.1619 9.65199C30.0568 9.77699 30.0043 9.93892 30.0043 10.1378C30.0043 10.4219 30.108 10.6364 30.3153 10.7812C30.5227 10.9261 30.7869 10.9986 31.108 10.9986ZM37.2571 3.27273V12H35.7145V3.27273H37.2571ZM41.7411 12.1278C41.0849 12.1278 40.5181 11.9915 40.0408 11.7188C39.5664 11.4432 39.2013 11.054 38.9457 10.5511C38.69 10.0455 38.5621 9.45028 38.5621 8.76562C38.5621 8.09233 38.69 7.50142 38.9457 6.9929C39.2042 6.48153 39.565 6.08381 40.0281 5.79972C40.4911 5.51278 41.0352 5.36932 41.6602 5.36932C42.0636 5.36932 42.4442 5.43466 42.8022 5.56534C43.163 5.69318 43.4812 5.89205 43.7567 6.16193C44.0352 6.43182 44.2539 6.77557 44.413 7.19318C44.5721 7.60795 44.6516 8.10227 44.6516 8.67614V9.14915H39.2866V8.10938H43.1729C43.1701 7.81392 43.1062 7.55114 42.9812 7.32102C42.8562 7.08807 42.6815 6.90483 42.457 6.77131C42.2354 6.63778 41.9769 6.57102 41.6815 6.57102C41.3661 6.57102 41.0891 6.64773 40.8505 6.80114C40.6119 6.9517 40.4258 7.15057 40.2923 7.39773C40.1616 7.64205 40.0948 7.91051 40.092 8.20312V9.1108C40.092 9.49148 40.1616 9.81818 40.3008 10.0909C40.44 10.3608 40.6346 10.5682 40.8846 10.7131C41.1346 10.8551 41.4272 10.9261 41.7624 10.9261C41.9869 10.9261 42.19 10.8949 42.3718 10.8324C42.5536 10.767 42.7113 10.6719 42.8448 10.5469C42.9783 10.4219 43.0792 10.267 43.1474 10.0824L44.5877 10.2443C44.4968 10.625 44.3235 10.9574 44.0678 11.2415C43.815 11.5227 43.4911 11.7415 43.0962 11.8977C42.7013 12.0511 42.2496 12.1278 41.7411 12.1278ZM47.4993 8.16477V12H45.9567V5.45455H47.4311V6.56676H47.5078C47.6584 6.20028 47.8984 5.90909 48.228 5.69318C48.5604 5.47727 48.9709 5.36932 49.4595 5.36932C49.9112 5.36932 50.3047 5.46591 50.6399 5.65909C50.978 5.85227 51.2393 6.1321 51.424 6.49858C51.6115 6.86506 51.7038 7.30966 51.701 7.83239V12H50.1584V8.07102C50.1584 7.63352 50.0447 7.29119 49.8175 7.04403C49.593 6.79687 49.282 6.6733 48.8842 6.6733C48.6143 6.6733 48.3743 6.73295 48.1641 6.85227C47.9567 6.96875 47.7933 7.13778 47.674 7.35938C47.5575 7.58097 47.4993 7.84943 47.4993 8.16477ZM56.5376 5.45455V6.64773H52.7749V5.45455H56.5376ZM53.7038 3.88636H55.2464V10.0312C55.2464 10.2386 55.2777 10.3977 55.3402 10.5085C55.4055 10.6165 55.4908 10.6903 55.5959 10.7301C55.701 10.7699 55.8175 10.7898 55.9453 10.7898C56.0419 10.7898 56.13 10.7827 56.2095 10.7685C56.2919 10.7543 56.3544 10.7415 56.397 10.7301L56.657 11.9361C56.5746 11.9645 56.4567 11.9957 56.3033 12.0298C56.1527 12.0639 55.968 12.0838 55.7493 12.0895C55.3629 12.1009 55.0149 12.0426 54.7053 11.9148C54.3956 11.7841 54.1499 11.5824 53.968 11.3097C53.7891 11.0369 53.701 10.696 53.7038 10.2869V3.88636ZM68.3427 6.21733H66.7489C66.7035 5.95597 66.6197 5.72443 66.4975 5.52273C66.3754 5.31818 66.2234 5.14489 66.0415 5.00284C65.8597 4.8608 65.6523 4.75426 65.4194 4.68324C65.1893 4.60938 64.9407 4.57244 64.6737 4.57244C64.1992 4.57244 63.7788 4.69176 63.4123 4.9304C63.0458 5.16619 62.7589 5.51278 62.5515 5.97017C62.3441 6.42472 62.2404 6.98011 62.2404 7.63636C62.2404 8.30398 62.3441 8.86648 62.5515 9.32386C62.7617 9.77841 63.0487 10.1222 63.4123 10.3551C63.7788 10.5852 64.1978 10.7003 64.6694 10.7003C64.9308 10.7003 65.1751 10.6662 65.4023 10.598C65.6325 10.527 65.8384 10.4233 66.0202 10.2869C66.2049 10.1506 66.3597 9.98295 66.4847 9.78409C66.6126 9.58523 66.7006 9.35795 66.7489 9.10227L68.3427 9.1108C68.283 9.52557 68.1538 9.91477 67.9549 10.2784C67.7589 10.642 67.5018 10.9631 67.1836 11.2415C66.8654 11.517 66.4933 11.733 66.0671 11.8892C65.641 12.0426 65.168 12.1193 64.6481 12.1193C63.881 12.1193 63.1964 11.9418 62.5941 11.5866C61.9918 11.2315 61.5174 10.7188 61.1708 10.0483C60.8242 9.37784 60.6509 8.57386 60.6509 7.63636C60.6509 6.69602 60.8256 5.89205 61.1751 5.22443C61.5245 4.55398 62.0004 4.04119 62.6026 3.68608C63.2049 3.33097 63.8867 3.15341 64.6481 3.15341C65.1339 3.15341 65.5856 3.22159 66.0032 3.35795C66.4208 3.49432 66.793 3.6946 67.1197 3.95881C67.4464 4.22017 67.7148 4.54119 67.9251 4.92188C68.1381 5.29972 68.2773 5.73153 68.3427 6.21733ZM72.5774 12.1278C71.9382 12.1278 71.3842 11.9872 70.9155 11.706C70.4467 11.4247 70.0831 11.0312 69.8246 10.5256C69.5689 10.0199 69.4411 9.42898 69.4411 8.75284C69.4411 8.0767 69.5689 7.48437 69.8246 6.97585C70.0831 6.46733 70.4467 6.07244 70.9155 5.79119C71.3842 5.50994 71.9382 5.36932 72.5774 5.36932C73.2166 5.36932 73.7706 5.50994 74.2393 5.79119C74.7081 6.07244 75.0703 6.46733 75.326 6.97585C75.5845 7.48437 75.7138 8.0767 75.7138 8.75284C75.7138 9.42898 75.5845 10.0199 75.326 10.5256C75.0703 11.0312 74.7081 11.4247 74.2393 11.706C73.7706 11.9872 73.2166 12.1278 72.5774 12.1278ZM72.5859 10.892C72.9325 10.892 73.2223 10.7969 73.4553 10.6065C73.6882 10.4134 73.8615 10.1548 73.9751 9.83097C74.0916 9.5071 74.1499 9.14631 74.1499 8.74858C74.1499 8.34801 74.0916 7.9858 73.9751 7.66193C73.8615 7.33523 73.6882 7.07528 73.4553 6.8821C73.2223 6.68892 72.9325 6.59233 72.5859 6.59233C72.2308 6.59233 71.9354 6.68892 71.6996 6.8821C71.4666 7.07528 71.2919 7.33523 71.1754 7.66193C71.0618 7.9858 71.005 8.34801 71.005 8.74858C71.005 9.14631 71.0618 9.5071 71.1754 9.83097C71.2919 10.1548 71.4666 10.4134 71.6996 10.6065C71.9354 10.7969 72.2308 10.892 72.5859 10.892ZM78.5657 8.16477V12H77.0231V5.45455H78.4975V6.56676H78.5742C78.7248 6.20028 78.9648 5.90909 79.2944 5.69318C79.6268 5.47727 80.0373 5.36932 80.5259 5.36932C80.9776 5.36932 81.3711 5.46591 81.7063 5.65909C82.0444 5.85227 82.3058 6.1321 82.4904 6.49858C82.6779 6.86506 82.7702 7.30966 82.7674 7.83239V12H81.2248V8.07102C81.2248 7.63352 81.1112 7.29119 80.8839 7.04403C80.6594 6.79687 80.3484 6.6733 79.9506 6.6733C79.6808 6.6733 79.4407 6.73295 79.2305 6.85227C79.0231 6.96875 78.8597 7.13778 78.7404 7.35938C78.6239 7.58097 78.5657 7.84943 78.5657 8.16477ZM85.8782 8.16477V12H84.3356V5.45455H85.81V6.56676H85.8867C86.0373 6.20028 86.2773 5.90909 86.6069 5.69318C86.9393 5.47727 87.3498 5.36932 87.8384 5.36932C88.2901 5.36932 88.6836 5.46591 89.0188 5.65909C89.3569 5.85227 89.6183 6.1321 89.8029 6.49858C89.9904 6.86506 90.0827 7.30966 90.0799 7.83239V12H88.5373V8.07102C88.5373 7.63352 88.4237 7.29119 88.1964 7.04403C87.9719 6.79687 87.6609 6.6733 87.2631 6.6733C86.9933 6.6733 86.7532 6.73295 86.543 6.85227C86.3356 6.96875 86.1722 7.13778 86.0529 7.35938C85.9364 7.58097 85.8782 7.84943 85.8782 8.16477ZM94.5458 12.1278C93.8896 12.1278 93.3228 11.9915 92.8455 11.7188C92.3711 11.4432 92.006 11.054 91.7504 10.5511C91.4947 10.0455 91.3668 9.45028 91.3668 8.76562C91.3668 8.09233 91.4947 7.50142 91.7504 6.9929C92.0089 6.48153 92.3697 6.08381 92.8327 5.79972C93.2958 5.51278 93.8398 5.36932 94.4648 5.36932C94.8683 5.36932 95.2489 5.43466 95.6069 5.56534C95.9677 5.69318 96.2859 5.89205 96.5614 6.16193C96.8398 6.43182 97.0586 6.77557 97.2177 7.19318C97.3768 7.60795 97.4563 8.10227 97.4563 8.67614V9.14915H92.0913V8.10938H95.9776C95.9748 7.81392 95.9109 7.55114 95.7859 7.32102C95.6609 7.08807 95.4862 6.90483 95.2617 6.77131C95.0401 6.63778 94.7816 6.57102 94.4862 6.57102C94.1708 6.57102 93.8938 6.64773 93.6552 6.80114C93.4165 6.9517 93.2305 7.15057 93.0969 7.39773C92.9663 7.64205 92.8995 7.91051 92.8967 8.20312V9.1108C92.8967 9.49148 92.9663 9.81818 93.1055 10.0909C93.2447 10.3608 93.4393 10.5682 93.6893 10.7131C93.9393 10.8551 94.2319 10.9261 94.5671 10.9261C94.7915 10.9261 94.9947 10.8949 95.1765 10.8324C95.3583 10.767 95.516 10.6719 95.6495 10.5469C95.783 10.4219 95.8839 10.267 95.9521 10.0824L97.3924 10.2443C97.3015 10.625 97.1282 10.9574 96.8725 11.2415C96.6197 11.5227 96.2958 11.7415 95.9009 11.8977C95.506 12.0511 95.0543 12.1278 94.5458 12.1278ZM101.616 12.1278C100.963 12.1278 100.402 11.9844 99.9332 11.6974C99.4673 11.4105 99.108 11.0142 98.8551 10.5085C98.6051 10 98.4801 9.41477 98.4801 8.75284C98.4801 8.08807 98.608 7.50142 98.8636 6.9929C99.1193 6.48153 99.4801 6.08381 99.946 5.79972C100.415 5.51278 100.969 5.36932 101.608 5.36932C102.139 5.36932 102.609 5.46733 103.018 5.66335C103.43 5.85653 103.759 6.13068 104.003 6.4858C104.247 6.83807 104.386 7.25 104.42 7.72159H102.946C102.886 7.40625 102.744 7.14347 102.52 6.93324C102.298 6.72017 102.001 6.61364 101.629 6.61364C101.314 6.61364 101.037 6.69886 100.798 6.86932C100.56 7.03693 100.374 7.27841 100.24 7.59375C100.109 7.90909 100.044 8.28693 100.044 8.72727C100.044 9.1733 100.109 9.55682 100.24 9.87784C100.371 10.196 100.554 10.4418 100.79 10.6151C101.028 10.7855 101.308 10.8707 101.629 10.8707C101.857 10.8707 102.06 10.8281 102.239 10.7429C102.42 10.6548 102.572 10.5284 102.695 10.3636C102.817 10.1989 102.901 9.99858 102.946 9.76278H104.42C104.384 10.2259 104.247 10.6364 104.011 10.9943C103.776 11.3494 103.455 11.6278 103.048 11.8295C102.642 12.0284 102.165 12.1278 101.616 12.1278ZM108.956 5.45455V6.64773H105.193V5.45455H108.956ZM106.122 3.88636H107.664V10.0312C107.664 10.2386 107.696 10.3977 107.758 10.5085C107.824 10.6165 107.909 10.6903 108.014 10.7301C108.119 10.7699 108.235 10.7898 108.363 10.7898C108.46 10.7898 108.548 10.7827 108.627 10.7685C108.71 10.7543 108.772 10.7415 108.815 10.7301L109.075 11.9361C108.993 11.9645 108.875 11.9957 108.721 12.0298C108.571 12.0639 108.386 12.0838 108.167 12.0895C107.781 12.1009 107.433 12.0426 107.123 11.9148C106.814 11.7841 106.568 11.5824 106.386 11.3097C106.207 11.0369 106.119 10.696 106.122 10.2869V3.88636Z" fill="white"/>
<mask id="mask0_108907_10869" style="mask-type:luminance" maskUnits="userSpaceOnUse" x="0" y="0" width="16" height="16">
<path d="M16 0H0V16H16V0Z" fill="white"/>
</mask>
<g mask="url(#mask0_108907_10869)">
<path d="M8 16C12.4183 16 16 12.4183 16 8C16 3.58172 12.4183 0 8 0C3.58172 0 0 3.58172 0 8C0 12.4183 3.58172 16 8 16Z" fill="#4640DE"/>
<mask id="mask1_108907_10869" style="mask-type:luminance" maskUnits="userSpaceOnUse" x="4" y="11" width="8" height="3">
<path d="M7.99992 13.5C9.33252 13.5 10.6651 12.4477 11.5303 11.5895C11.7299 11.3916 11.4895 11.1061 11.241 11.2375C10.3006 11.7345 9.00897 12.3 7.99992 12.3C6.99087 12.3 5.69927 11.7345 4.75882 11.2375C4.5103 11.1061 4.26998 11.3916 4.46955 11.5895C5.33472 12.4477 6.66732 13.5 7.99992 13.5Z" fill="white"/>
</mask>
<g mask="url(#mask1_108907_10869)">
<path d="M10.4739 10.5247C10.0891 10.9065 9.63253 11.2978 9.15998 11.5858C8.67448 11.8815 8.28353 12.0002 7.99993 12.0002V15.0002C9.04893 15.0002 9.99058 14.5926 10.7209 14.1477C11.464 13.6949 12.1064 13.131 12.5866 12.6546L10.4739 10.5247ZM7.99993 12.0002C7.71633 12.0002 7.32538 11.8815 6.83988 11.5858C6.36733 11.2978 5.91078 10.9065 5.52593 10.5247L3.41322 12.6546C3.89347 13.131 4.53581 13.6949 5.27898 14.1477C6.00928 14.5926 6.95093 15.0002 7.99993 15.0002V12.0002ZM4.05789 12.5638C4.56563 12.8321 5.19128 13.1316 5.84663 13.367C6.48343 13.5957 7.24598 13.8002 7.99993 13.8002V10.8002C7.74488 10.8002 7.35708 10.7219 6.86073 10.5436C6.38283 10.372 5.89248 10.1402 5.45978 9.91149L4.05789 12.5638ZM7.99993 13.8002C8.75388 13.8002 9.51643 13.5957 10.1532 13.367C10.8086 13.1316 11.4342 12.8321 11.942 12.5638L10.5401 9.91149C10.1074 10.1402 9.61703 10.372 9.13918 10.5436C8.64278 10.7219 8.25498 10.8002 7.99993 10.8002V13.8002ZM12.5866 12.6546C12.8836 12.36 13.0887 11.9499 13.1035 11.4798C13.1177 11.0277 12.9524 10.6265 12.7075 10.3317C12.2056 9.72754 11.316 9.50139 10.5401 9.91149L11.942 12.5638C11.4146 12.8425 10.7694 12.6934 10.3999 12.2486C10.2212 12.0335 10.0941 11.7326 10.105 11.3856C10.1165 11.0205 10.2767 10.7203 10.4739 10.5247L12.5866 12.6546ZM5.52593 10.5247C5.72313 10.7203 5.88338 11.0205 5.89488 11.3856C5.90578 11.7326 5.77868 12.0335 5.59998 12.2486C5.23048 12.6934 4.58527 12.8425 4.05789 12.5638L5.45978 9.91149C4.68386 9.50139 3.79423 9.72754 3.29234 10.3317C3.04745 10.6265 2.88214 11.0277 2.89636 11.4798C2.91113 11.9499 3.11622 12.36 3.41322 12.6546L5.52593 10.5247Z" fill="white"/>
</g>
<path d="M10.8566 4.65774C10.6966 4.49664 10.6966 4.23849 10.8566 4.07744L11.7158 3.01299V2.99452C11.9335 2.77917 12.2864 2.77917 12.5041 2.99452C12.7217 3.20989 12.7217 3.55904 12.5041 3.77439L11.4917 4.65774L11.4539 4.69124C11.3748 4.75369 11.2763 4.78814 11.1741 4.78814C11.055 4.78814 10.9407 4.74124 10.8566 4.65774ZM4.33398 7.59234C4.33398 6.64444 4.71458 5.73539 5.39207 5.06514C6.06952 4.39484 6.98837 4.01829 7.94647 4.01829C9.94157 4.01829 11.5589 5.61844 11.5589 7.59234C11.5589 9.56619 9.94157 11.1663 7.94647 11.1663C5.95132 11.1663 4.33398 9.56619 4.33398 7.59234Z" fill="white"/>
</g>
</svg>
