<svg width="116" height="117" viewBox="0 0 116 117" fill="none" xmlns="http://www.w3.org/2000/svg">
<ellipse cx="57.7931" cy="58.2144" rx="57.7931" ry="58.2144" fill="#9747FF"/>
<mask id="path-2-inside-1_1_207" fill="white">
<path fill-rule="evenodd" clip-rule="evenodd" d="M57.9615 67.522C54.5247 74.4848 47.3531 79.2743 39.0629 79.2743C27.4302 79.2743 18 69.8441 18 58.2114C18 46.5786 27.4302 37.1484 39.0629 37.1484C47.3531 37.1484 54.5247 41.9379 57.9615 48.9007C61.3984 41.9379 68.5699 37.1484 76.8601 37.1484C88.4929 37.1484 97.9231 46.5786 97.9231 58.2114C97.9231 69.8441 88.4929 79.2743 76.8601 79.2743C68.5699 79.2743 61.3984 74.4848 57.9615 67.522Z"/>
</mask>
<path fill-rule="evenodd" clip-rule="evenodd" d="M57.9615 67.522C54.5247 74.4848 47.3531 79.2743 39.0629 79.2743C27.4302 79.2743 18 69.8441 18 58.2114C18 46.5786 27.4302 37.1484 39.0629 37.1484C47.3531 37.1484 54.5247 41.9379 57.9615 48.9007C61.3984 41.9379 68.5699 37.1484 76.8601 37.1484C88.4929 37.1484 97.9231 46.5786 97.9231 58.2114C97.9231 69.8441 88.4929 79.2743 76.8601 79.2743C68.5699 79.2743 61.3984 74.4848 57.9615 67.522Z" fill="#9747FF"/>
<path d="M57.9615 67.522L66.2201 63.4455L57.9615 46.7143L49.703 63.4455L57.9615 67.522ZM57.9615 48.9007L49.703 52.9772L57.9615 69.7084L66.2201 52.9772L57.9615 48.9007ZM49.703 63.4455C47.7579 67.3861 43.7146 70.0644 39.0629 70.0644V88.4841C50.9916 88.4841 61.2914 81.5836 66.2201 71.5984L49.703 63.4455ZM39.0629 70.0644C32.5166 70.0644 27.2098 64.7576 27.2098 58.2114H8.79016C8.79016 74.9305 22.3437 88.4841 39.0629 88.4841V70.0644ZM27.2098 58.2114C27.2098 51.6651 32.5166 46.3583 39.0629 46.3583V27.9386C22.3437 27.9386 8.79016 41.4922 8.79016 58.2114H27.2098ZM39.0629 46.3583C43.7146 46.3583 47.7579 49.0367 49.703 52.9772L66.2201 44.8243C61.2914 34.8391 50.9916 27.9386 39.0629 27.9386V46.3583ZM66.2201 52.9772C68.1651 49.0367 72.2084 46.3583 76.8601 46.3583V27.9386C64.9315 27.9386 54.6317 34.8391 49.703 44.8243L66.2201 52.9772ZM76.8601 46.3583C83.4064 46.3583 88.7132 51.6651 88.7132 58.2114H107.133C107.133 41.4922 93.5793 27.9386 76.8601 27.9386V46.3583ZM88.7132 58.2114C88.7132 64.7576 83.4064 70.0644 76.8601 70.0644V88.4841C93.5793 88.4841 107.133 74.9305 107.133 58.2114H88.7132ZM76.8601 70.0644C72.2084 70.0644 68.1651 67.3861 66.2201 63.4455L49.703 71.5984C54.6317 81.5836 64.9315 88.4841 76.8601 88.4841V70.0644Z" fill="white" mask="url(#path-2-inside-1_1_207)"/>
</svg>
