<svg width="684" height="77" viewBox="0 0 684 77" fill="none" xmlns="http://www.w3.org/2000/svg">
<rect x="43.25" y="19.25" width="601.5" height="0.5" stroke="#7086FD" stroke-width="0.5" stroke-dasharray="2 2"/>
<rect x="26.5" width="36" height="36" rx="18" fill="#8B04F5"/>
<path d="M52.7237 23.275C52.7237 23.575 52.6537 23.8834 52.505 24.1834C52.3562 24.4834 52.1638 24.7667 51.91 25.0334C51.4813 25.4834 51.0087 25.8084 50.475 26.0167C49.95 26.225 49.3813 26.3334 48.7688 26.3334C47.8763 26.3334 46.9225 26.1334 45.9162 25.725C44.91 25.3167 43.9037 24.7667 42.9062 24.075C41.9 23.375 40.9462 22.6 40.0362 21.7417C39.135 20.875 38.3212 19.9667 37.595 19.0167C36.8775 18.0667 36.3 17.1167 35.88 16.175C35.46 15.225 35.25 14.3167 35.25 13.45C35.25 12.8834 35.355 12.3417 35.565 11.8417C35.775 11.3334 36.1075 10.8667 36.5712 10.45C37.1312 9.92502 37.7438 9.66669 38.3913 9.66669C38.6363 9.66669 38.8813 9.71669 39.1 9.81669C39.3275 9.91669 39.5288 10.0667 39.6863 10.2834L41.7163 13.0084C41.8738 13.2167 41.9875 13.4084 42.0662 13.5917C42.145 13.7667 42.1888 13.9417 42.1888 14.1C42.1888 14.3 42.1275 14.5 42.005 14.6917C41.8913 14.8834 41.725 15.0834 41.515 15.2834L40.85 15.9417C40.7537 16.0334 40.71 16.1417 40.71 16.275C40.71 16.3417 40.7188 16.4 40.7363 16.4667C40.7625 16.5334 40.7888 16.5834 40.8063 16.6334C40.9638 16.9084 41.235 17.2667 41.62 17.7C42.0137 18.1334 42.4337 18.575 42.8887 19.0167C43.3612 19.4584 43.8162 19.8667 44.28 20.2417C44.735 20.6084 45.1112 20.8584 45.4087 21.0084C45.4525 21.025 45.505 21.05 45.5662 21.075C45.6362 21.1 45.7062 21.1084 45.785 21.1084C45.9337 21.1084 46.0475 21.0584 46.1437 20.9667L46.8088 20.3417C47.0275 20.1334 47.2375 19.975 47.4388 19.875C47.64 19.7584 47.8412 19.7 48.06 19.7C48.2262 19.7 48.4013 19.7334 48.5938 19.8084C48.7862 19.8834 48.9875 19.9917 49.2063 20.1334L52.1025 22.0917C52.33 22.2417 52.4875 22.4167 52.5837 22.625C52.6712 22.8334 52.7237 23.0417 52.7237 23.275Z" stroke="white" stroke-miterlimit="10"/>
<path d="M49.6875 15.5C49.6875 15 49.2762 14.2334 48.6637 13.6084C48.1037 13.0334 47.36 12.5834 46.625 12.5834" stroke="white" stroke-linecap="round" stroke-linejoin="round"/>
<path d="M52.75 15.5C52.75 12.275 50.0112 9.66669 46.625 9.66669" stroke="white" stroke-linecap="round" stroke-linejoin="round"/>
<path d="M2.81179 53H0.84304L4.42756 42.8182H6.70455L10.294 53H8.32528L5.60582 44.9062H5.52628L2.81179 53ZM2.87642 49.0078H8.24574V50.4893H2.87642V49.0078ZM13.4796 42.8182V53H11.6351V42.8182H13.4796ZM24.483 45.6172C24.4366 45.183 24.241 44.8449 23.8963 44.603C23.5549 44.361 23.1108 44.2401 22.5639 44.2401C22.1795 44.2401 21.8497 44.2981 21.5746 44.4141C21.2995 44.5301 21.089 44.6875 20.9432 44.8864C20.7973 45.0852 20.7228 45.3123 20.7195 45.5675C20.7195 45.7796 20.7675 45.9635 20.8636 46.1193C20.9631 46.2751 21.0973 46.4077 21.2663 46.517C21.4354 46.6231 21.6226 46.7126 21.8281 46.7855C22.0336 46.8584 22.2408 46.9197 22.4496 46.9695L23.4041 47.2081C23.7886 47.2976 24.1581 47.4186 24.5128 47.571C24.8707 47.7235 25.1906 47.9157 25.4723 48.1477C25.7573 48.3797 25.9827 48.6598 26.1484 48.9879C26.3142 49.3161 26.397 49.7005 26.397 50.1413C26.397 50.7379 26.2446 51.2633 25.9396 51.7173C25.6347 52.1681 25.1939 52.5211 24.6172 52.7763C24.0438 53.0282 23.3494 53.1541 22.5341 53.1541C21.742 53.1541 21.0542 53.0315 20.4709 52.7862C19.8909 52.541 19.4368 52.183 19.1087 51.7124C18.7839 51.2417 18.6082 50.6683 18.5817 49.9922H20.3963C20.4228 50.3468 20.5322 50.6418 20.7244 50.8771C20.9167 51.1125 21.1669 51.2881 21.4751 51.4041C21.7867 51.5201 22.1347 51.5781 22.5192 51.5781C22.9202 51.5781 23.2715 51.5185 23.5732 51.3991C23.8781 51.2765 24.1167 51.1075 24.2891 50.892C24.4614 50.6733 24.5492 50.4181 24.5526 50.1264C24.5492 49.8613 24.4714 49.6425 24.3189 49.4702C24.1664 49.2945 23.9527 49.1487 23.6776 49.0327C23.4058 48.9134 23.0876 48.8073 22.723 48.7145L21.5646 48.4162C20.7261 48.2008 20.0632 47.8743 19.576 47.4368C19.0921 46.996 18.8501 46.411 18.8501 45.6818C18.8501 45.0819 19.0125 44.5566 19.3374 44.1058C19.6655 43.6551 20.1113 43.3054 20.6747 43.0568C21.2382 42.8049 21.8762 42.679 22.5888 42.679C23.3113 42.679 23.9444 42.8049 24.4879 43.0568C25.0348 43.3054 25.464 43.6518 25.7756 44.0959C26.0871 44.5367 26.2479 45.0438 26.2578 45.6172H24.483ZM31.2928 53.1491C30.5305 53.1491 29.8759 52.9818 29.329 52.647C28.7855 52.3123 28.3662 51.8499 28.0712 51.2599C27.7795 50.6667 27.6337 49.9839 27.6337 49.2116C27.6337 48.4361 27.7828 47.7517 28.0811 47.1584C28.3794 46.5618 28.8004 46.0978 29.3439 45.7663C29.8908 45.4316 30.5371 45.2642 31.2828 45.2642C31.9026 45.2642 32.4512 45.3786 32.9284 45.6072C33.409 45.8326 33.7918 46.1525 34.0769 46.5668C34.3619 46.9777 34.5243 47.4583 34.5641 48.0085H32.8439C32.7743 47.6406 32.6086 47.334 32.3468 47.0888C32.0882 46.8402 31.7419 46.7159 31.3077 46.7159C30.9398 46.7159 30.6167 46.8153 30.3382 47.0142C30.0598 47.2098 29.8427 47.4915 29.687 47.8594C29.5345 48.2273 29.4583 48.6681 29.4583 49.1818C29.4583 49.7022 29.5345 50.1496 29.687 50.5241C29.8394 50.8954 30.0532 51.1821 30.3283 51.3842C30.6067 51.5831 30.9332 51.6825 31.3077 51.6825C31.5729 51.6825 31.8098 51.6328 32.0186 51.5334C32.2308 51.4306 32.4081 51.2831 32.5506 51.0909C32.6931 50.8987 32.7909 50.665 32.8439 50.3899H34.5641C34.521 50.9302 34.3619 51.4091 34.0868 51.8267C33.8117 52.241 33.4372 52.5658 32.9632 52.8011C32.4893 53.0331 31.9325 53.1491 31.2928 53.1491ZM36.0419 53V45.3636H37.7869V46.6364H37.8665C38.0057 46.1955 38.2443 45.8558 38.5824 45.6172C38.9238 45.3752 39.3132 45.2543 39.7507 45.2543C39.8501 45.2543 39.9612 45.2592 40.0838 45.2692C40.2098 45.2758 40.3142 45.2874 40.397 45.304V46.9595C40.3208 46.933 40.1998 46.9098 40.0341 46.8899C39.8717 46.8667 39.7143 46.8551 39.5618 46.8551C39.2337 46.8551 38.9387 46.9264 38.6768 47.0689C38.4183 47.2081 38.2145 47.402 38.0653 47.6506C37.9162 47.8991 37.8416 48.1858 37.8416 48.5107V53H36.0419ZM44.6589 53.1491C43.8933 53.1491 43.2321 52.9901 42.6752 52.6719C42.1217 52.3504 41.6958 51.8963 41.3975 51.3097C41.0993 50.7197 40.9501 50.0253 40.9501 49.2266C40.9501 48.4411 41.0993 47.7517 41.3975 47.1584C41.6992 46.5618 42.1201 46.0978 42.6603 45.7663C43.2006 45.4316 43.8353 45.2642 44.5645 45.2642C45.0351 45.2642 45.4792 45.3404 45.8968 45.4929C46.3178 45.642 46.689 45.8741 47.0105 46.1889C47.3353 46.5038 47.5905 46.9048 47.7761 47.392C47.9617 47.8759 48.0545 48.4527 48.0545 49.1222V49.674H41.7953V48.4609H46.3294C46.3261 48.1162 46.2515 47.8097 46.1056 47.5412C45.9598 47.2694 45.756 47.0556 45.4941 46.8999C45.2356 46.7441 44.934 46.6662 44.5893 46.6662C44.2214 46.6662 43.8983 46.7557 43.6199 46.9347C43.3414 47.1103 43.1243 47.3423 42.9686 47.6307C42.8161 47.9157 42.7382 48.2289 42.7349 48.5703V49.6293C42.7349 50.0734 42.8161 50.4545 42.9785 50.7727C43.1409 51.0876 43.368 51.3295 43.6596 51.4986C43.9513 51.6643 44.2927 51.7472 44.6838 51.7472C44.9456 51.7472 45.1826 51.7107 45.3947 51.6378C45.6068 51.5616 45.7908 51.4505 45.9466 51.3047C46.1023 51.1589 46.22 50.9782 46.2995 50.7628L47.9799 50.9517C47.8739 51.3958 47.6717 51.7836 47.3734 52.1151C47.0784 52.4432 46.7006 52.6984 46.2399 52.8807C45.7792 53.0597 45.2522 53.1491 44.6589 53.1491ZM52.9577 53.1491C52.1921 53.1491 51.5309 52.9901 50.9741 52.6719C50.4206 52.3504 49.9947 51.8963 49.6964 51.3097C49.3981 50.7197 49.2489 50.0253 49.2489 49.2266C49.2489 48.4411 49.3981 47.7517 49.6964 47.1584C49.998 46.5618 50.4189 46.0978 50.9592 45.7663C51.4994 45.4316 52.1341 45.2642 52.8633 45.2642C53.3339 45.2642 53.7781 45.3404 54.1957 45.4929C54.6166 45.642 54.9878 45.8741 55.3093 46.1889C55.6341 46.5038 55.8893 46.9048 56.0749 47.392C56.2605 47.8759 56.3533 48.4527 56.3533 49.1222V49.674H50.0941V48.4609H54.6282C54.6249 48.1162 54.5503 47.8097 54.4045 47.5412C54.2586 47.2694 54.0548 47.0556 53.793 46.8999C53.5344 46.7441 53.2328 46.6662 52.8881 46.6662C52.5202 46.6662 52.1971 46.7557 51.9187 46.9347C51.6403 47.1103 51.4232 47.3423 51.2674 47.6307C51.1149 47.9157 51.0371 48.2289 51.0337 48.5703V49.6293C51.0337 50.0734 51.1149 50.4545 51.2773 50.7727C51.4397 51.0876 51.6668 51.3295 51.9585 51.4986C52.2501 51.6643 52.5915 51.7472 52.9826 51.7472C53.2444 51.7472 53.4814 51.7107 53.6935 51.6378C53.9057 51.5616 54.0896 51.4505 54.2454 51.3047C54.4012 51.1589 54.5188 50.9782 54.5984 50.7628L56.2788 50.9517C56.1727 51.3958 55.9705 51.7836 55.6722 52.1151C55.3772 52.4432 54.9994 52.6984 54.5387 52.8807C54.078 53.0597 53.551 53.1491 52.9577 53.1491ZM59.6756 48.5256V53H57.8759V45.3636H59.5961V46.6612H59.6855C59.8612 46.2337 60.1413 45.8939 60.5257 45.642C60.9135 45.3902 61.3925 45.2642 61.9625 45.2642C62.4895 45.2642 62.9486 45.3769 63.3397 45.6023C63.7341 45.8277 64.039 46.1541 64.2544 46.5817C64.4732 47.0092 64.5809 47.5279 64.5776 48.1378V53H62.7779V48.4162C62.7779 47.9058 62.6453 47.5064 62.3801 47.218C62.1183 46.9297 61.7554 46.7855 61.2914 46.7855C60.9765 46.7855 60.6964 46.8551 60.4512 46.9943C60.2092 47.1302 60.0186 47.3274 59.8794 47.5859C59.7435 47.8445 59.6756 48.1577 59.6756 48.5256ZM66.4071 53V45.3636H68.2069V53H66.4071ZM67.312 44.2798C67.0269 44.2798 66.7817 44.1854 66.5762 43.9964C66.3707 43.8042 66.2679 43.5739 66.2679 43.3054C66.2679 43.0336 66.3707 42.8033 66.5762 42.6143C66.7817 42.4221 67.0269 42.326 67.312 42.326C67.6003 42.326 67.8456 42.4221 68.0478 42.6143C68.2533 42.8033 68.356 43.0336 68.356 43.3054C68.356 43.5739 68.2533 43.8042 68.0478 43.9964C67.8456 44.1854 67.6003 44.2798 67.312 44.2798ZM71.8572 48.5256V53H70.0575V45.3636H71.7777V46.6612H71.8672C72.0429 46.2337 72.3229 45.8939 72.7074 45.642C73.0952 45.3902 73.5741 45.2642 74.1442 45.2642C74.6712 45.2642 75.1302 45.3769 75.5213 45.6023C75.9157 45.8277 76.2206 46.1541 76.4361 46.5817C76.6548 47.0092 76.7625 47.5279 76.7592 48.1378V53H74.9595V48.4162C74.9595 47.9058 74.8269 47.5064 74.5618 47.218C74.3 46.9297 73.937 46.7855 73.473 46.7855C73.1581 46.7855 72.8781 46.8551 72.6328 46.9943C72.3909 47.1302 72.2003 47.3274 72.0611 47.5859C71.9252 47.8445 71.8572 48.1577 71.8572 48.5256ZM81.9098 56.0227C81.2635 56.0227 80.7083 55.9349 80.2443 55.7592C79.7803 55.5869 79.4074 55.3549 79.1257 55.0632C78.844 54.7715 78.6484 54.4484 78.5391 54.0938L80.1598 53.701C80.2327 53.8501 80.3388 53.9976 80.478 54.1435C80.6172 54.2926 80.8045 54.4152 81.0398 54.5114C81.2784 54.6108 81.5784 54.6605 81.9396 54.6605C82.45 54.6605 82.8726 54.5362 83.2074 54.2876C83.5421 54.0424 83.7095 53.638 83.7095 53.0746V51.6278H83.62C83.5272 51.8134 83.3913 52.004 83.2124 52.1996C83.0367 52.3951 82.803 52.5592 82.5114 52.6918C82.223 52.8243 81.8601 52.8906 81.4226 52.8906C80.8359 52.8906 80.304 52.7531 79.8267 52.478C79.3527 52.1996 78.9749 51.7853 78.6932 51.2351C78.4148 50.6816 78.2756 49.9889 78.2756 49.157C78.2756 48.3184 78.4148 47.6108 78.6932 47.0341C78.9749 46.4541 79.3544 46.0149 79.8317 45.7166C80.3089 45.415 80.8409 45.2642 81.4276 45.2642C81.875 45.2642 82.2429 45.3404 82.5312 45.4929C82.8229 45.642 83.0549 45.8227 83.2273 46.0348C83.3996 46.2436 83.5305 46.4408 83.62 46.6264H83.7195V45.3636H85.4943V53.1243C85.4943 53.7772 85.3385 54.3175 85.027 54.745C84.7154 55.1726 84.2895 55.4924 83.7493 55.7045C83.209 55.9167 82.5959 56.0227 81.9098 56.0227ZM81.9247 51.4787C82.3059 51.4787 82.6307 51.3859 82.8991 51.2003C83.1676 51.0147 83.3714 50.7479 83.5107 50.3999C83.6499 50.0518 83.7195 49.6342 83.7195 49.147C83.7195 48.6664 83.6499 48.2455 83.5107 47.8842C83.3748 47.523 83.1726 47.2429 82.9041 47.044C82.639 46.8419 82.3125 46.7408 81.9247 46.7408C81.5237 46.7408 81.1889 46.8452 80.9205 47.054C80.652 47.2628 80.4498 47.5495 80.3139 47.9141C80.178 48.2753 80.1101 48.6863 80.1101 49.147C80.1101 49.6143 80.178 50.0237 80.3139 50.375C80.4531 50.723 80.657 50.9948 80.9254 51.1903C81.1972 51.3826 81.5303 51.4787 81.9247 51.4787Z" fill="white" fill-opacity="0.87"/>
<path d="M606.558 42.8182V53H604.713V42.8182H606.558ZM610.275 48.5256V53H608.475V45.3636H610.196V46.6612H610.285C610.461 46.2337 610.741 45.8939 611.125 45.642C611.513 45.3902 611.992 45.2642 612.562 45.2642C613.089 45.2642 613.548 45.3769 613.939 45.6023C614.334 45.8277 614.639 46.1541 614.854 46.5817C615.073 47.0092 615.181 47.5279 615.177 48.1378V53H613.377V48.4162C613.377 47.9058 613.245 47.5064 612.98 47.218C612.718 46.9297 612.355 46.7855 611.891 46.7855C611.576 46.7855 611.296 46.8551 611.051 46.9943C610.809 47.1302 610.618 47.3274 610.479 47.5859C610.343 47.8445 610.275 48.1577 610.275 48.5256ZM620.82 45.3636V46.7557H616.43V45.3636H620.82ZM617.514 43.5341H619.314V50.7031C619.314 50.9451 619.35 51.1307 619.423 51.2599C619.499 51.3859 619.599 51.4721 619.721 51.5185C619.844 51.5649 619.98 51.5881 620.129 51.5881C620.242 51.5881 620.344 51.5798 620.437 51.5632C620.533 51.5466 620.606 51.5317 620.656 51.5185L620.959 52.9254C620.863 52.9586 620.725 52.995 620.547 53.0348C620.371 53.0746 620.155 53.0978 619.9 53.1044C619.449 53.1177 619.043 53.0497 618.682 52.9006C618.321 52.7481 618.034 52.5128 617.822 52.1946C617.613 51.8764 617.511 51.4787 617.514 51.0014V43.5341ZM625.624 53.1491C624.858 53.1491 624.197 52.9901 623.64 52.6719C623.087 52.3504 622.661 51.8963 622.362 51.3097C622.064 50.7197 621.915 50.0253 621.915 49.2266C621.915 48.4411 622.064 47.7517 622.362 47.1584C622.664 46.5618 623.085 46.0978 623.625 45.7663C624.165 45.4316 624.8 45.2642 625.529 45.2642C626 45.2642 626.444 45.3404 626.862 45.4929C627.283 45.642 627.654 45.8741 627.975 46.1889C628.3 46.5038 628.555 46.9048 628.741 47.392C628.927 47.8759 629.019 48.4527 629.019 49.1222V49.674H622.76V48.4609H627.294C627.291 48.1162 627.216 47.8097 627.07 47.5412C626.925 47.2694 626.721 47.0556 626.459 46.8999C626.2 46.7441 625.899 46.6662 625.554 46.6662C625.186 46.6662 624.863 46.7557 624.585 46.9347C624.306 47.1103 624.089 47.3423 623.933 47.6307C623.781 47.9157 623.703 48.2289 623.7 48.5703V49.6293C623.7 50.0734 623.781 50.4545 623.943 50.7727C624.106 51.0876 624.333 51.3295 624.624 51.4986C624.916 51.6643 625.258 51.7472 625.649 51.7472C625.91 51.7472 626.147 51.7107 626.36 51.6378C626.572 51.5616 626.756 51.4505 626.911 51.3047C627.067 51.1589 627.185 50.9782 627.264 50.7628L628.945 50.9517C628.839 51.3958 628.637 51.7836 628.338 52.1151C628.043 52.4432 627.665 52.6984 627.205 52.8807C626.744 53.0597 626.217 53.1491 625.624 53.1491ZM630.542 53V45.3636H632.287V46.6364H632.366C632.506 46.1955 632.744 45.8558 633.082 45.6172C633.424 45.3752 633.813 45.2543 634.251 45.2543C634.35 45.2543 634.461 45.2592 634.584 45.2692C634.71 45.2758 634.814 45.2874 634.897 45.304V46.9595C634.821 46.933 634.7 46.9098 634.534 46.8899C634.372 46.8667 634.214 46.8551 634.062 46.8551C633.734 46.8551 633.439 46.9264 633.177 47.0689C632.918 47.2081 632.714 47.402 632.565 47.6506C632.416 47.8991 632.342 48.1858 632.342 48.5107V53H630.542ZM643.146 45.3636L640.427 53H638.438L635.719 45.3636H637.638L639.393 51.0362H639.472L641.232 45.3636H643.146ZM644.392 53V45.3636H646.191V53H644.392ZM645.296 44.2798C645.011 44.2798 644.766 44.1854 644.561 43.9964C644.355 43.8042 644.252 43.5739 644.252 43.3054C644.252 43.0336 644.355 42.8033 644.561 42.6143C644.766 42.4221 645.011 42.326 645.296 42.326C645.585 42.326 645.83 42.4221 646.032 42.6143C646.238 42.8033 646.34 43.0336 646.34 43.3054C646.34 43.5739 646.238 43.8042 646.032 43.9964C645.83 44.1854 645.585 44.2798 645.296 44.2798ZM651.423 53.1491C650.657 53.1491 649.996 52.9901 649.439 52.6719C648.885 52.3504 648.46 51.8963 648.161 51.3097C647.863 50.7197 647.714 50.0253 647.714 49.2266C647.714 48.4411 647.863 47.7517 648.161 47.1584C648.463 46.5618 648.884 46.0978 649.424 45.7663C649.964 45.4316 650.599 45.2642 651.328 45.2642C651.799 45.2642 652.243 45.3404 652.661 45.4929C653.081 45.642 653.453 45.8741 653.774 46.1889C654.099 46.5038 654.354 46.9048 654.54 47.392C654.725 47.8759 654.818 48.4527 654.818 49.1222V49.674H648.559V48.4609H653.093C653.09 48.1162 653.015 47.8097 652.869 47.5412C652.723 47.2694 652.52 47.0556 652.258 46.8999C651.999 46.7441 651.698 46.6662 651.353 46.6662C650.985 46.6662 650.662 46.7557 650.384 46.9347C650.105 47.1103 649.888 47.3423 649.732 47.6307C649.58 47.9157 649.502 48.2289 649.499 48.5703V49.6293C649.499 50.0734 649.58 50.4545 649.742 50.7727C649.905 51.0876 650.132 51.3295 650.423 51.4986C650.715 51.6643 651.056 51.7472 651.447 51.7472C651.709 51.7472 651.946 51.7107 652.158 51.6378C652.371 51.5616 652.554 51.4505 652.71 51.3047C652.866 51.1589 652.984 50.9782 653.063 50.7628L654.744 50.9517C654.638 51.3958 654.435 51.7836 654.137 52.1151C653.842 52.4432 653.464 52.6984 653.004 52.8807C652.543 53.0597 652.016 53.1491 651.423 53.1491ZM657.876 53L655.718 45.3636H657.553L658.895 50.733H658.964L660.337 45.3636H662.151L663.523 50.7031H663.598L664.92 45.3636H666.76L664.597 53H662.723L661.291 47.8395H661.187L659.755 53H657.876ZM675.611 42.8182V53H673.766V44.6129H673.706L671.325 46.1342V44.4439L673.856 42.8182H675.611Z" fill="white" fill-opacity="0.87"/>
<path d="M606.942 63.2727V72H605.919L601.164 65.1477H601.078V72H600.022V63.2727H601.044L605.817 70.142H605.902V63.2727H606.942ZM611.58 72.1364C610.989 72.1364 610.47 71.9957 610.024 71.7145C609.581 71.4332 609.234 71.0398 608.984 70.5341C608.737 70.0284 608.614 69.4375 608.614 68.7614C608.614 68.0795 608.737 67.4844 608.984 66.9759C609.234 66.4673 609.581 66.0724 610.024 65.7912C610.47 65.5099 610.989 65.3693 611.58 65.3693C612.17 65.3693 612.688 65.5099 613.131 65.7912C613.577 66.0724 613.923 66.4673 614.17 66.9759C614.42 67.4844 614.545 68.0795 614.545 68.7614C614.545 69.4375 614.42 70.0284 614.17 70.5341C613.923 71.0398 613.577 71.4332 613.131 71.7145C612.688 71.9957 612.17 72.1364 611.58 72.1364ZM611.58 71.233C612.028 71.233 612.398 71.1179 612.688 70.8878C612.977 70.6577 613.192 70.3551 613.331 69.9801C613.47 69.6051 613.54 69.1989 613.54 68.7614C613.54 68.3239 613.47 67.9162 613.331 67.5384C613.192 67.1605 612.977 66.8551 612.688 66.6222C612.398 66.3892 612.028 66.2727 611.58 66.2727C611.131 66.2727 610.761 66.3892 610.472 66.6222C610.182 66.8551 609.967 67.1605 609.828 67.5384C609.689 67.9162 609.619 68.3239 609.619 68.7614C609.619 69.1989 609.689 69.6051 609.828 69.9801C609.967 70.3551 610.182 70.6577 610.472 70.8878C610.761 71.1179 611.131 71.233 611.58 71.233ZM618.927 65.4545V66.3068H615.535V65.4545H618.927ZM616.524 63.8864H617.529V70.125C617.529 70.4091 617.571 70.6222 617.653 70.7642C617.738 70.9034 617.846 70.9972 617.977 71.0455C618.11 71.0909 618.251 71.1136 618.399 71.1136C618.51 71.1136 618.6 71.108 618.672 71.0966C618.743 71.0824 618.799 71.071 618.842 71.0625L619.047 71.9659C618.978 71.9915 618.883 72.017 618.761 72.0426C618.639 72.071 618.484 72.0852 618.297 72.0852C618.012 72.0852 617.734 72.0241 617.461 71.902C617.191 71.7798 616.967 71.5938 616.788 71.3438C616.612 71.0938 616.524 70.7784 616.524 70.3977V63.8864ZM628.724 65.4545C628.673 65.0227 628.466 64.6875 628.102 64.4489C627.738 64.2102 627.292 64.0909 626.764 64.0909C626.377 64.0909 626.039 64.1534 625.75 64.2784C625.463 64.4034 625.238 64.5753 625.076 64.794C624.917 65.0128 624.838 65.2614 624.838 65.5398C624.838 65.7727 624.893 65.973 625.004 66.1406C625.118 66.3054 625.262 66.4432 625.439 66.554C625.615 66.6619 625.799 66.7514 625.993 66.8224C626.186 66.8906 626.363 66.946 626.525 66.9886L627.412 67.2273C627.639 67.2869 627.892 67.3693 628.17 67.4744C628.451 67.5795 628.72 67.723 628.975 67.9048C629.234 68.0838 629.447 68.3139 629.615 68.5952C629.782 68.8764 629.866 69.2216 629.866 69.6307C629.866 70.1023 629.743 70.5284 629.495 70.9091C629.251 71.2898 628.893 71.5923 628.422 71.8168C627.953 72.0412 627.383 72.1534 626.713 72.1534C626.088 72.1534 625.547 72.0526 625.089 71.8509C624.635 71.6491 624.277 71.3679 624.015 71.0071C623.757 70.6463 623.61 70.2273 623.576 69.75H624.667C624.696 70.0795 624.806 70.3523 625 70.5682C625.196 70.7812 625.443 70.9403 625.741 71.0455C626.042 71.1477 626.366 71.1989 626.713 71.1989C627.116 71.1989 627.478 71.1335 627.799 71.0028C628.12 70.8693 628.375 70.6847 628.562 70.4489C628.75 70.2102 628.843 69.9318 628.843 69.6136C628.843 69.3239 628.762 69.0881 628.6 68.9062C628.439 68.7244 628.225 68.5767 627.961 68.4631C627.697 68.3494 627.412 68.25 627.105 68.1648L626.031 67.858C625.349 67.6619 624.809 67.3821 624.412 67.0185C624.014 66.6548 623.815 66.179 623.815 65.5909C623.815 65.1023 623.947 64.6761 624.211 64.3125C624.478 63.946 624.836 63.6619 625.285 63.4602C625.737 63.2557 626.241 63.1534 626.798 63.1534C627.36 63.1534 627.86 63.2543 628.298 63.456C628.735 63.6548 629.082 63.9276 629.338 64.2741C629.596 64.6207 629.733 65.0142 629.747 65.4545H628.724ZM634.126 72.1364C633.513 72.1364 632.984 71.9915 632.541 71.7017C632.098 71.4119 631.757 71.0128 631.518 70.5043C631.28 69.9957 631.161 69.4148 631.161 68.7614C631.161 68.0966 631.283 67.5099 631.527 67.0014C631.774 66.4901 632.118 66.0909 632.558 65.804C633.001 65.5142 633.518 65.3693 634.109 65.3693C634.57 65.3693 634.984 65.4545 635.354 65.625C635.723 65.7955 636.026 66.0341 636.261 66.3409C636.497 66.6477 636.643 67.0057 636.7 67.4148H635.695C635.618 67.1165 635.447 66.8523 635.183 66.6222C634.922 66.3892 634.57 66.2727 634.126 66.2727C633.734 66.2727 633.391 66.375 633.095 66.5795C632.803 66.7812 632.574 67.0668 632.409 67.4361C632.247 67.8026 632.166 68.233 632.166 68.7273C632.166 69.233 632.246 69.6733 632.405 70.0483C632.567 70.4233 632.794 70.7145 633.087 70.9219C633.382 71.1293 633.729 71.233 634.126 71.233C634.388 71.233 634.625 71.1875 634.838 71.0966C635.051 71.0057 635.232 70.875 635.379 70.7045C635.527 70.5341 635.632 70.3295 635.695 70.0909H636.7C636.643 70.4773 636.503 70.8253 636.278 71.1349C636.057 71.4418 635.763 71.6861 635.396 71.8679C635.033 72.0469 634.609 72.1364 634.126 72.1364ZM639.176 68.0625V72H638.17V63.2727H639.176V66.4773H639.261C639.415 66.1392 639.645 65.8707 639.952 65.6719C640.261 65.4702 640.673 65.3693 641.188 65.3693C641.634 65.3693 642.024 65.4588 642.359 65.6378C642.695 65.8139 642.955 66.0852 643.139 66.4517C643.327 66.8153 643.42 67.2784 643.42 67.8409V72H642.415V67.9091C642.415 67.3892 642.28 66.9872 642.01 66.7031C641.743 66.4162 641.372 66.2727 640.898 66.2727C640.568 66.2727 640.273 66.3423 640.011 66.4815C639.753 66.6207 639.548 66.8239 639.398 67.0909C639.25 67.358 639.176 67.6818 639.176 68.0625ZM648.005 72.1364C647.374 72.1364 646.83 71.9972 646.373 71.7188C645.918 71.4375 645.567 71.0455 645.32 70.5426C645.076 70.0369 644.953 69.4489 644.953 68.7784C644.953 68.108 645.076 67.517 645.32 67.0057C645.567 66.4915 645.911 66.0909 646.351 65.804C646.794 65.5142 647.311 65.3693 647.902 65.3693C648.243 65.3693 648.58 65.4261 648.912 65.5398C649.245 65.6534 649.547 65.8381 649.82 66.0938C650.093 66.3466 650.31 66.6818 650.472 67.0994C650.634 67.517 650.715 68.0312 650.715 68.642V69.0682H645.669V68.1989H649.692C649.692 67.8295 649.618 67.5 649.471 67.2102C649.326 66.9205 649.118 66.6918 648.848 66.5241C648.581 66.3565 648.266 66.2727 647.902 66.2727C647.502 66.2727 647.155 66.3722 646.863 66.571C646.573 66.767 646.35 67.0227 646.194 67.3381C646.037 67.6534 645.959 67.9915 645.959 68.3523V68.9318C645.959 69.4261 646.044 69.8452 646.215 70.1889C646.388 70.5298 646.628 70.7898 646.935 70.9688C647.242 71.1449 647.598 71.233 648.005 71.233C648.269 71.233 648.507 71.196 648.721 71.1222C648.936 71.0455 649.123 70.9318 649.279 70.7812C649.435 70.6278 649.556 70.4375 649.641 70.2102L650.613 70.483C650.51 70.8125 650.338 71.1023 650.097 71.3523C649.855 71.5994 649.557 71.7926 649.202 71.9318C648.847 72.0682 648.448 72.1364 648.005 72.1364ZM654.716 72.1364C654.171 72.1364 653.689 71.9986 653.272 71.723C652.854 71.4446 652.527 71.0526 652.292 70.5469C652.056 70.0384 651.938 69.4375 651.938 68.7443C651.938 68.0568 652.056 67.4602 652.292 66.9545C652.527 66.4489 652.855 66.0582 653.276 65.7827C653.696 65.5071 654.182 65.3693 654.733 65.3693C655.159 65.3693 655.496 65.4403 655.743 65.5824C655.993 65.7216 656.184 65.8807 656.314 66.0597C656.448 66.2358 656.551 66.3807 656.625 66.4943H656.711V63.2727H657.716V72H656.745V70.9943H656.625C656.551 71.1136 656.446 71.2642 656.31 71.446C656.174 71.625 655.979 71.7855 655.726 71.9276C655.473 72.0668 655.137 72.1364 654.716 72.1364ZM654.853 71.233C655.256 71.233 655.597 71.1278 655.875 70.9176C656.154 70.7045 656.365 70.4105 656.51 70.0355C656.655 69.6577 656.728 69.2216 656.728 68.7273C656.728 68.2386 656.657 67.8111 656.515 67.4446C656.373 67.0753 656.162 66.7884 655.884 66.5838C655.605 66.3764 655.262 66.2727 654.853 66.2727C654.426 66.2727 654.071 66.3821 653.787 66.6009C653.506 66.8168 653.294 67.1108 653.152 67.483C653.013 67.8523 652.944 68.267 652.944 68.7273C652.944 69.1932 653.015 69.6165 653.157 69.9972C653.301 70.375 653.515 70.6761 653.796 70.9006C654.08 71.1222 654.432 71.233 654.853 71.233ZM663.823 69.3239V65.4545H664.828V72H663.823V70.892H663.755C663.601 71.2244 663.363 71.5071 663.039 71.7401C662.715 71.9702 662.306 72.0852 661.811 72.0852C661.402 72.0852 661.039 71.9957 660.721 71.8168C660.402 71.6349 660.152 71.3622 659.971 70.9986C659.789 70.6321 659.698 70.1705 659.698 69.6136V65.4545H660.703V69.5455C660.703 70.0227 660.837 70.4034 661.104 70.6875C661.374 70.9716 661.718 71.1136 662.135 71.1136C662.385 71.1136 662.64 71.0497 662.898 70.9219C663.159 70.794 663.378 70.598 663.554 70.3338C663.733 70.0696 663.823 69.733 663.823 69.3239ZM667.676 63.2727V72H666.67V63.2727H667.676ZM672.262 72.1364C671.632 72.1364 671.088 71.9972 670.63 71.7188C670.176 71.4375 669.825 71.0455 669.578 70.5426C669.333 70.0369 669.211 69.4489 669.211 68.7784C669.211 68.108 669.333 67.517 669.578 67.0057C669.825 66.4915 670.169 66.0909 670.609 65.804C671.052 65.5142 671.569 65.3693 672.16 65.3693C672.501 65.3693 672.838 65.4261 673.17 65.5398C673.502 65.6534 673.805 65.8381 674.078 66.0938C674.35 66.3466 674.568 66.6818 674.73 67.0994C674.892 67.517 674.973 68.0312 674.973 68.642V69.0682H669.927V68.1989H673.95C673.95 67.8295 673.876 67.5 673.728 67.2102C673.583 66.9205 673.376 66.6918 673.106 66.5241C672.839 66.3565 672.524 66.2727 672.16 66.2727C671.76 66.2727 671.413 66.3722 671.12 66.571C670.831 66.767 670.608 67.0227 670.451 67.3381C670.295 67.6534 670.217 67.9915 670.217 68.3523V68.9318C670.217 69.4261 670.302 69.8452 670.473 70.1889C670.646 70.5298 670.886 70.7898 671.193 70.9688C671.5 71.1449 671.856 71.233 672.262 71.233C672.527 71.233 672.765 71.196 672.978 71.1222C673.194 71.0455 673.38 70.9318 673.537 70.7812C673.693 70.6278 673.814 70.4375 673.899 70.2102L674.87 70.483C674.768 70.8125 674.596 71.1023 674.355 71.3523C674.113 71.5994 673.815 71.7926 673.46 71.9318C673.105 72.0682 672.706 72.1364 672.262 72.1364ZM678.974 72.1364C678.429 72.1364 677.947 71.9986 677.529 71.723C677.112 71.4446 676.785 71.0526 676.549 70.5469C676.314 70.0384 676.196 69.4375 676.196 68.7443C676.196 68.0568 676.314 67.4602 676.549 66.9545C676.785 66.4489 677.113 66.0582 677.534 65.7827C677.954 65.5071 678.44 65.3693 678.991 65.3693C679.417 65.3693 679.754 65.4403 680.001 65.5824C680.251 65.7216 680.441 65.8807 680.572 66.0597C680.706 66.2358 680.809 66.3807 680.883 66.4943H680.968V63.2727H681.974V72H681.002V70.9943H680.883C680.809 71.1136 680.704 71.2642 680.568 71.446C680.431 71.625 680.237 71.7855 679.984 71.9276C679.731 72.0668 679.395 72.1364 678.974 72.1364ZM679.11 71.233C679.514 71.233 679.855 71.1278 680.133 70.9176C680.412 70.7045 680.623 70.4105 680.768 70.0355C680.913 69.6577 680.985 69.2216 680.985 68.7273C680.985 68.2386 680.914 67.8111 680.772 67.4446C680.63 67.0753 680.42 66.7884 680.142 66.5838C679.863 66.3764 679.52 66.2727 679.11 66.2727C678.684 66.2727 678.329 66.3821 678.045 66.6009C677.764 66.8168 677.552 67.1108 677.41 67.483C677.271 67.8523 677.201 68.267 677.201 68.7273C677.201 69.1932 677.272 69.6165 677.414 69.9972C677.559 70.375 677.772 70.6761 678.054 70.9006C678.338 71.1222 678.69 71.233 679.11 71.233Z" fill="#767FFF"/>
<rect x="623.5" width="36" height="36" rx="18" fill="#424B57"/>
<path d="M641.942 25.0167H636.675C634.042 25.0167 633.167 23.2667 633.167 21.5083V14.4917C633.167 11.8583 634.042 10.9833 636.675 10.9833H641.942C644.575 10.9833 645.45 11.8583 645.45 14.4917V21.5083C645.45 24.1417 644.567 25.0167 641.942 25.0167Z" stroke="white" stroke-linecap="round" stroke-linejoin="round"/>
<path d="M647.767 22.25L645.45 20.625V15.3667L647.767 13.7417C648.9 12.95 649.833 13.4333 649.833 14.825V21.175C649.833 22.5667 648.9 23.05 647.767 22.25Z" stroke="white" stroke-linecap="round" stroke-linejoin="round"/>
<path d="M641.083 17.1667C641.774 17.1667 642.333 16.607 642.333 15.9167C642.333 15.2263 641.774 14.6667 641.083 14.6667C640.393 14.6667 639.833 15.2263 639.833 15.9167C639.833 16.607 640.393 17.1667 641.083 17.1667Z" stroke="white" stroke-linecap="round" stroke-linejoin="round"/>
<path d="M318.935 53H316.966L320.551 42.8182H322.828L326.417 53H324.448L321.729 44.9062H321.649L318.935 53ZM318.999 49.0078H324.369V50.4893H318.999V49.0078ZM333.591 47.3821L331.95 47.5611C331.904 47.3954 331.823 47.2396 331.707 47.0938C331.594 46.9479 331.442 46.8303 331.249 46.7408C331.057 46.6513 330.822 46.6065 330.544 46.6065C330.169 46.6065 329.854 46.6877 329.599 46.8501C329.347 47.0125 329.223 47.223 329.226 47.4815C329.223 47.7036 329.304 47.8842 329.47 48.0234C329.639 48.1626 329.917 48.277 330.305 48.3665L331.607 48.6449C332.33 48.8007 332.867 49.0476 333.218 49.3857C333.573 49.7237 333.752 50.1662 333.755 50.7131C333.752 51.1937 333.611 51.6179 333.333 51.9858C333.057 52.3504 332.675 52.6354 332.184 52.8409C331.694 53.0464 331.13 53.1491 330.494 53.1491C329.559 53.1491 328.807 52.9536 328.237 52.5625C327.667 52.1681 327.327 51.6196 327.218 50.9169L328.972 50.7479C329.052 51.0926 329.221 51.3527 329.48 51.5284C329.738 51.7041 330.075 51.7919 330.489 51.7919C330.916 51.7919 331.259 51.7041 331.518 51.5284C331.78 51.3527 331.911 51.1357 331.911 50.8771C331.911 50.6584 331.826 50.4777 331.657 50.3352C331.491 50.1927 331.233 50.0833 330.882 50.0071L329.579 49.7337C328.847 49.5812 328.305 49.3243 327.953 48.9631C327.602 48.5985 327.428 48.1378 327.431 47.581C327.428 47.1103 327.556 46.7027 327.814 46.358C328.076 46.0099 328.439 45.7415 328.903 45.5526C329.37 45.3603 329.909 45.2642 330.519 45.2642C331.414 45.2642 332.118 45.4548 332.632 45.8359C333.149 46.2171 333.468 46.7325 333.591 47.3821ZM341.275 47.3821L339.634 47.5611C339.588 47.3954 339.506 47.2396 339.39 47.0938C339.278 46.9479 339.125 46.8303 338.933 46.7408C338.741 46.6513 338.506 46.6065 338.227 46.6065C337.853 46.6065 337.538 46.6877 337.282 46.8501C337.031 47.0125 336.906 47.223 336.91 47.4815C336.906 47.7036 336.988 47.8842 337.153 48.0234C337.322 48.1626 337.601 48.277 337.988 48.3665L339.291 48.6449C340.014 48.8007 340.55 49.0476 340.902 49.3857C341.256 49.7237 341.435 50.1662 341.439 50.7131C341.435 51.1937 341.295 51.6179 341.016 51.9858C340.741 52.3504 340.358 52.6354 339.868 52.8409C339.377 53.0464 338.814 53.1491 338.177 53.1491C337.243 53.1491 336.49 52.9536 335.92 52.5625C335.35 52.1681 335.01 51.6196 334.901 50.9169L336.656 50.7479C336.736 51.0926 336.905 51.3527 337.163 51.5284C337.422 51.7041 337.758 51.7919 338.172 51.7919C338.6 51.7919 338.943 51.7041 339.202 51.5284C339.463 51.3527 339.594 51.1357 339.594 50.8771C339.594 50.6584 339.51 50.4777 339.341 50.3352C339.175 50.1927 338.916 50.0833 338.565 50.0071L337.263 49.7337C336.53 49.5812 335.988 49.3243 335.637 48.9631C335.286 48.5985 335.112 48.1378 335.115 47.581C335.112 47.1103 335.239 46.7027 335.498 46.358C335.76 46.0099 336.122 45.7415 336.586 45.5526C337.054 45.3603 337.592 45.2642 338.202 45.2642C339.097 45.2642 339.801 45.4548 340.315 45.8359C340.832 46.2171 341.152 46.7325 341.275 47.3821ZM346.303 53.1491C345.538 53.1491 344.877 52.9901 344.32 52.6719C343.766 52.3504 343.34 51.8963 343.042 51.3097C342.744 50.7197 342.595 50.0253 342.595 49.2266C342.595 48.4411 342.744 47.7517 343.042 47.1584C343.344 46.5618 343.765 46.0978 344.305 45.7663C344.845 45.4316 345.48 45.2642 346.209 45.2642C346.68 45.2642 347.124 45.3404 347.541 45.4929C347.962 45.642 348.334 45.8741 348.655 46.1889C348.98 46.5038 349.235 46.9048 349.421 47.392C349.606 47.8759 349.699 48.4527 349.699 49.1222V49.674H343.44V48.4609H347.974C347.971 48.1162 347.896 47.8097 347.75 47.5412C347.604 47.2694 347.401 47.0556 347.139 46.8999C346.88 46.7441 346.579 46.6662 346.234 46.6662C345.866 46.6662 345.543 46.7557 345.264 46.9347C344.986 47.1103 344.769 47.3423 344.613 47.6307C344.461 47.9157 344.383 48.2289 344.379 48.5703V49.6293C344.379 50.0734 344.461 50.4545 344.623 50.7727C344.785 51.0876 345.012 51.3295 345.304 51.4986C345.596 51.6643 345.937 51.7472 346.328 51.7472C346.59 51.7472 346.827 51.7107 347.039 51.6378C347.251 51.5616 347.435 51.4505 347.591 51.3047C347.747 51.1589 347.865 50.9782 347.944 50.7628L349.624 50.9517C349.518 51.3958 349.316 51.7836 349.018 52.1151C348.723 52.4432 348.345 52.6984 347.884 52.8807C347.424 53.0597 346.897 53.1491 346.303 53.1491ZM357.257 47.3821L355.616 47.5611C355.57 47.3954 355.489 47.2396 355.373 47.0938C355.26 46.9479 355.108 46.8303 354.915 46.7408C354.723 46.6513 354.488 46.6065 354.21 46.6065C353.835 46.6065 353.52 46.6877 353.265 46.8501C353.013 47.0125 352.889 47.223 352.892 47.4815C352.889 47.7036 352.97 47.8842 353.136 48.0234C353.305 48.1626 353.583 48.277 353.971 48.3665L355.273 48.6449C355.996 48.8007 356.533 49.0476 356.884 49.3857C357.239 49.7237 357.418 50.1662 357.421 50.7131C357.418 51.1937 357.277 51.6179 356.999 51.9858C356.723 52.3504 356.341 52.6354 355.85 52.8409C355.36 53.0464 354.796 53.1491 354.16 53.1491C353.225 53.1491 352.473 52.9536 351.903 52.5625C351.333 52.1681 350.993 51.6196 350.884 50.9169L352.638 50.7479C352.718 51.0926 352.887 51.3527 353.146 51.5284C353.404 51.7041 353.741 51.7919 354.155 51.7919C354.582 51.7919 354.925 51.7041 355.184 51.5284C355.446 51.3527 355.577 51.1357 355.577 50.8771C355.577 50.6584 355.492 50.4777 355.323 50.3352C355.157 50.1927 354.899 50.0833 354.548 50.0071L353.245 49.7337C352.513 49.5812 351.971 49.3243 351.619 48.9631C351.268 48.5985 351.094 48.1378 351.097 47.581C351.094 47.1103 351.222 46.7027 351.48 46.358C351.742 46.0099 352.105 45.7415 352.569 45.5526C353.036 45.3603 353.575 45.2642 354.185 45.2642C355.08 45.2642 355.784 45.4548 356.298 45.8359C356.815 46.2171 357.134 46.7325 357.257 47.3821ZM364.941 47.3821L363.3 47.5611C363.254 47.3954 363.172 47.2396 363.056 47.0938C362.944 46.9479 362.791 46.8303 362.599 46.7408C362.407 46.6513 362.172 46.6065 361.893 46.6065C361.519 46.6065 361.204 46.6877 360.949 46.8501C360.697 47.0125 360.572 47.223 360.576 47.4815C360.572 47.7036 360.654 47.8842 360.819 48.0234C360.988 48.1626 361.267 48.277 361.654 48.3665L362.957 48.6449C363.68 48.8007 364.217 49.0476 364.568 49.3857C364.922 49.7237 365.101 50.1662 365.105 50.7131C365.101 51.1937 364.961 51.6179 364.682 51.9858C364.407 52.3504 364.024 52.6354 363.534 52.8409C363.043 53.0464 362.48 53.1491 361.843 53.1491C360.909 53.1491 360.156 52.9536 359.586 52.5625C359.016 52.1681 358.676 51.6196 358.567 50.9169L360.322 50.7479C360.402 51.0926 360.571 51.3527 360.829 51.5284C361.088 51.7041 361.424 51.7919 361.838 51.7919C362.266 51.7919 362.609 51.7041 362.868 51.5284C363.129 51.3527 363.26 51.1357 363.26 50.8771C363.26 50.6584 363.176 50.4777 363.007 50.3352C362.841 50.1927 362.583 50.0833 362.231 50.0071L360.929 49.7337C360.196 49.5812 359.654 49.3243 359.303 48.9631C358.952 48.5985 358.778 48.1378 358.781 47.581C358.778 47.1103 358.905 46.7027 359.164 46.358C359.426 46.0099 359.788 45.7415 360.252 45.5526C360.72 45.3603 361.258 45.2642 361.868 45.2642C362.763 45.2642 363.467 45.4548 363.981 45.8359C364.498 46.2171 364.818 46.7325 364.941 47.3821ZM366.589 53V45.3636H368.309V46.6612H368.398C368.558 46.2237 368.821 45.8823 369.189 45.6371C369.557 45.3885 369.996 45.2642 370.506 45.2642C371.023 45.2642 371.459 45.3902 371.814 45.642C372.172 45.8906 372.424 46.2304 372.57 46.6612H372.649C372.818 46.237 373.103 45.8989 373.504 45.647C373.909 45.3918 374.388 45.2642 374.941 45.2642C375.644 45.2642 376.217 45.4863 376.661 45.9304C377.105 46.3745 377.327 47.0225 377.327 47.8743V53H375.523V48.1527C375.523 47.6787 375.397 47.3324 375.145 47.1136C374.893 46.8916 374.585 46.7805 374.22 46.7805C373.786 46.7805 373.446 46.9164 373.201 47.1882C372.959 47.4567 372.838 47.8063 372.838 48.2372V53H371.073V48.0781C371.073 47.6837 370.954 47.3688 370.715 47.1335C370.48 46.8982 370.172 46.7805 369.79 46.7805C369.532 46.7805 369.297 46.8468 369.085 46.9794C368.872 47.1087 368.703 47.2926 368.577 47.5312C368.451 47.7666 368.388 48.0417 368.388 48.3565V53H366.589ZM382.534 53.1491C381.768 53.1491 381.107 52.9901 380.55 52.6719C379.997 52.3504 379.571 51.8963 379.273 51.3097C378.974 50.7197 378.825 50.0253 378.825 49.2266C378.825 48.4411 378.974 47.7517 379.273 47.1584C379.574 46.5618 379.995 46.0978 380.535 45.7663C381.076 45.4316 381.71 45.2642 382.439 45.2642C382.91 45.2642 383.354 45.3404 383.772 45.4929C384.193 45.642 384.564 45.8741 384.885 46.1889C385.21 46.5038 385.465 46.9048 385.651 47.392C385.837 47.8759 385.93 48.4527 385.93 49.1222V49.674H379.67V48.4609H384.204C384.201 48.1162 384.126 47.8097 383.981 47.5412C383.835 47.2694 383.631 47.0556 383.369 46.8999C383.111 46.7441 382.809 46.6662 382.464 46.6662C382.096 46.6662 381.773 46.7557 381.495 46.9347C381.216 47.1103 380.999 47.3423 380.844 47.6307C380.691 47.9157 380.613 48.2289 380.61 48.5703V49.6293C380.61 50.0734 380.691 50.4545 380.854 50.7727C381.016 51.0876 381.243 51.3295 381.535 51.4986C381.826 51.6643 382.168 51.7472 382.559 51.7472C382.821 51.7472 383.058 51.7107 383.27 51.6378C383.482 51.5616 383.666 51.4505 383.822 51.3047C383.977 51.1589 384.095 50.9782 384.175 50.7628L385.855 50.9517C385.749 51.3958 385.547 51.7836 385.248 52.1151C384.953 52.4432 384.576 52.6984 384.115 52.8807C383.654 53.0597 383.127 53.1491 382.534 53.1491ZM389.252 48.5256V53H387.452V45.3636H389.172V46.6612H389.262C389.437 46.2337 389.717 45.8939 390.102 45.642C390.49 45.3902 390.969 45.2642 391.539 45.2642C392.066 45.2642 392.525 45.3769 392.916 45.6023C393.31 45.8277 393.615 46.1541 393.831 46.5817C394.049 47.0092 394.157 47.5279 394.154 48.1378V53H392.354V48.4162C392.354 47.9058 392.221 47.5064 391.956 47.218C391.694 46.9297 391.332 46.7855 390.868 46.7855C390.553 46.7855 390.273 46.8551 390.027 46.9943C389.785 47.1302 389.595 47.3274 389.456 47.5859C389.32 47.8445 389.252 48.1577 389.252 48.5256ZM399.797 45.3636V46.7557H395.407V45.3636H399.797ZM396.49 43.5341H398.29V50.7031C398.29 50.9451 398.327 51.1307 398.4 51.2599C398.476 51.3859 398.575 51.4721 398.698 51.5185C398.82 51.5649 398.956 51.5881 399.105 51.5881C399.218 51.5881 399.321 51.5798 399.414 51.5632C399.51 51.5466 399.583 51.5317 399.632 51.5185L399.936 52.9254C399.84 52.9586 399.702 52.995 399.523 53.0348C399.347 53.0746 399.132 53.0978 398.877 53.1044C398.426 53.1177 398.02 53.0497 397.659 52.9006C397.297 52.7481 397.011 52.5128 396.799 52.1946C396.59 51.8764 396.487 51.4787 396.49 51.0014V43.5341Z" fill="white" fill-opacity="0.87"/>
<path d="M336.965 74V65.2727H339.914C340.599 65.2727 341.158 65.3963 341.593 65.6435C342.03 65.8878 342.354 66.2188 342.564 66.6364C342.775 67.054 342.88 67.5199 342.88 68.0341C342.88 68.5483 342.775 69.0156 342.564 69.4361C342.357 69.8565 342.036 70.1918 341.601 70.4418C341.167 70.6889 340.61 70.8125 339.931 70.8125H337.817V69.875H339.897C340.366 69.875 340.742 69.794 341.026 69.6321C341.31 69.4702 341.516 69.2514 341.644 68.9759C341.775 68.6974 341.84 68.3835 341.84 68.0341C341.84 67.6847 341.775 67.3722 341.644 67.0966C341.516 66.821 341.309 66.6051 341.022 66.4489C340.735 66.2898 340.354 66.2102 339.88 66.2102H338.022V74H336.965ZM347.12 74.1364C346.489 74.1364 345.945 73.9972 345.488 73.7188C345.033 73.4375 344.682 73.0455 344.435 72.5426C344.191 72.0369 344.069 71.4489 344.069 70.7784C344.069 70.108 344.191 69.517 344.435 69.0057C344.682 68.4915 345.026 68.0909 345.466 67.804C345.91 67.5142 346.427 67.3693 347.018 67.3693C347.358 67.3693 347.695 67.4261 348.028 67.5398C348.36 67.6534 348.662 67.8381 348.935 68.0938C349.208 68.3466 349.425 68.6818 349.587 69.0994C349.749 69.517 349.83 70.0312 349.83 70.642V71.0682H344.785V70.1989H348.807C348.807 69.8295 348.733 69.5 348.586 69.2102C348.441 68.9205 348.233 68.6918 347.964 68.5241C347.697 68.3565 347.381 68.2727 347.018 68.2727C346.617 68.2727 346.27 68.3722 345.978 68.571C345.688 68.767 345.465 69.0227 345.309 69.3381C345.153 69.6534 345.074 69.9915 345.074 70.3523V70.9318C345.074 71.4261 345.16 71.8452 345.33 72.1889C345.503 72.5298 345.743 72.7898 346.05 72.9688C346.357 73.1449 346.714 73.233 347.12 73.233C347.384 73.233 347.623 73.196 347.836 73.1222C348.052 73.0455 348.238 72.9318 348.394 72.7812C348.55 72.6278 348.671 72.4375 348.756 72.2102L349.728 72.483C349.626 72.8125 349.454 73.1023 349.212 73.3523C348.971 73.5994 348.672 73.7926 348.317 73.9318C347.962 74.0682 347.563 74.1364 347.12 74.1364ZM352.366 70.0625V74H351.36V67.4545H352.331V68.4773H352.417C352.57 68.1449 352.803 67.8778 353.116 67.6761C353.428 67.4716 353.831 67.3693 354.326 67.3693C354.769 67.3693 355.157 67.4602 355.489 67.642C355.822 67.821 356.08 68.0938 356.265 68.4602C356.449 68.8239 356.542 69.2841 356.542 69.8409V74H355.536V69.9091C355.536 69.3949 355.403 68.9943 355.135 68.7074C354.868 68.4176 354.502 68.2727 354.036 68.2727C353.715 68.2727 353.428 68.3423 353.175 68.4815C352.925 68.6207 352.728 68.8239 352.583 69.0909C352.438 69.358 352.366 69.6818 352.366 70.0625ZM360.851 74.1364C360.306 74.1364 359.824 73.9986 359.406 73.723C358.989 73.4446 358.662 73.0526 358.426 72.5469C358.191 72.0384 358.073 71.4375 358.073 70.7443C358.073 70.0568 358.191 69.4602 358.426 68.9545C358.662 68.4489 358.99 68.0582 359.411 67.7827C359.831 67.5071 360.317 67.3693 360.868 67.3693C361.294 67.3693 361.631 67.4403 361.878 67.5824C362.128 67.7216 362.318 67.8807 362.449 68.0597C362.583 68.2358 362.686 68.3807 362.76 68.4943H362.845V65.2727H363.851V74H362.879V72.9943H362.76C362.686 73.1136 362.581 73.2642 362.445 73.446C362.308 73.625 362.114 73.7855 361.861 73.9276C361.608 74.0668 361.271 74.1364 360.851 74.1364ZM360.987 73.233C361.391 73.233 361.732 73.1278 362.01 72.9176C362.289 72.7045 362.5 72.4105 362.645 72.0355C362.79 71.6577 362.862 71.2216 362.862 70.7273C362.862 70.2386 362.791 69.8111 362.649 69.4446C362.507 69.0753 362.297 68.7884 362.019 68.5838C361.74 68.3764 361.396 68.2727 360.987 68.2727C360.561 68.2727 360.206 68.3821 359.922 68.6009C359.641 68.8168 359.429 69.1108 359.287 69.483C359.148 69.8523 359.078 70.267 359.078 70.7273C359.078 71.1932 359.149 71.6165 359.291 71.9972C359.436 72.375 359.649 72.6761 359.931 72.9006C360.215 73.1222 360.567 73.233 360.987 73.233ZM365.833 74V67.4545H366.838V74H365.833ZM366.344 66.3636C366.148 66.3636 365.979 66.2969 365.837 66.1634C365.698 66.0298 365.628 65.8693 365.628 65.6818C365.628 65.4943 365.698 65.3338 365.837 65.2003C365.979 65.0668 366.148 65 366.344 65C366.54 65 366.708 65.0668 366.847 65.2003C366.989 65.3338 367.06 65.4943 367.06 65.6818C367.06 65.8693 366.989 66.0298 366.847 66.1634C366.708 66.2969 366.54 66.3636 366.344 66.3636ZM369.686 70.0625V74H368.68V67.4545H369.652V68.4773H369.737C369.89 68.1449 370.123 67.8778 370.436 67.6761C370.748 67.4716 371.152 67.3693 371.646 67.3693C372.089 67.3693 372.477 67.4602 372.809 67.642C373.142 67.821 373.4 68.0938 373.585 68.4602C373.77 68.8239 373.862 69.2841 373.862 69.8409V74H372.856V69.9091C372.856 69.3949 372.723 68.9943 372.456 68.7074C372.189 68.4176 371.822 68.2727 371.356 68.2727C371.035 68.2727 370.748 68.3423 370.496 68.4815C370.246 68.6207 370.048 68.8239 369.903 69.0909C369.758 69.358 369.686 69.6818 369.686 70.0625ZM378.342 76.5909C377.856 76.5909 377.438 76.5284 377.089 76.4034C376.74 76.2812 376.448 76.1193 376.215 75.9176C375.985 75.7188 375.802 75.5057 375.666 75.2784L376.467 74.7159C376.558 74.8352 376.673 74.9716 376.812 75.125C376.951 75.2812 377.142 75.4162 377.383 75.5298C377.627 75.6463 377.947 75.7045 378.342 75.7045C378.87 75.7045 379.306 75.5767 379.65 75.321C379.994 75.0653 380.166 74.6648 380.166 74.1193V72.7898H380.08C380.007 72.9091 379.901 73.0568 379.765 73.233C379.632 73.4062 379.438 73.5611 379.186 73.6974C378.936 73.831 378.597 73.8977 378.171 73.8977C377.643 73.8977 377.169 73.7727 376.748 73.5227C376.33 73.2727 375.999 72.9091 375.755 72.4318C375.514 71.9545 375.393 71.375 375.393 70.6932C375.393 70.0227 375.511 69.4389 375.747 68.9418C375.982 68.4418 376.311 68.0554 376.731 67.7827C377.151 67.5071 377.637 67.3693 378.188 67.3693C378.615 67.3693 378.953 67.4403 379.203 67.5824C379.455 67.7216 379.649 67.8807 379.782 68.0597C379.919 68.2358 380.024 68.3807 380.097 68.4943H380.2V67.4545H381.171V74.1875C381.171 74.75 381.044 75.2074 380.788 75.5597C380.535 75.9148 380.194 76.1747 379.765 76.3395C379.339 76.5071 378.865 76.5909 378.342 76.5909ZM378.308 72.9943C378.711 72.9943 379.052 72.902 379.33 72.7173C379.609 72.5327 379.82 72.267 379.965 71.9205C380.11 71.5739 380.183 71.1591 380.183 70.6761C380.183 70.2045 380.112 69.7884 379.97 69.4276C379.828 69.0668 379.617 68.7841 379.339 68.5795C379.061 68.375 378.717 68.2727 378.308 68.2727C377.882 68.2727 377.526 68.3807 377.242 68.5966C376.961 68.8125 376.749 69.1023 376.607 69.4659C376.468 69.8295 376.399 70.233 376.399 70.6761C376.399 71.1307 376.47 71.5327 376.612 71.8821C376.757 72.2287 376.97 72.5014 377.251 72.7003C377.535 72.8963 377.887 72.9943 378.308 72.9943Z" fill="#DFAC54"/>
<path d="M24.965 74V65.2727H27.9139C28.5985 65.2727 29.1582 65.3963 29.5929 65.6435C30.0304 65.8878 30.3542 66.2188 30.5645 66.6364C30.7747 67.054 30.8798 67.5199 30.8798 68.0341C30.8798 68.5483 30.7747 69.0156 30.5645 69.4361C30.3571 69.8565 30.036 70.1918 29.6014 70.4418C29.1667 70.6889 28.6099 70.8125 27.9309 70.8125H25.8173V69.875H27.8968C28.3656 69.875 28.742 69.794 29.0261 69.6321C29.3102 69.4702 29.5162 69.2514 29.644 68.9759C29.7747 68.6974 29.84 68.3835 29.84 68.0341C29.84 67.6847 29.7747 67.3722 29.644 67.0966C29.5162 66.821 29.3088 66.6051 29.0218 66.4489C28.7349 66.2898 28.3542 66.2102 27.8798 66.2102H26.0218V74H24.965ZM35.1199 74.1364C34.4892 74.1364 33.9451 73.9972 33.4877 73.7188C33.0332 73.4375 32.6824 73.0455 32.4352 72.5426C32.1909 72.0369 32.0687 71.4489 32.0687 70.7784C32.0687 70.108 32.1909 69.517 32.4352 69.0057C32.6824 68.4915 33.0261 68.0909 33.4664 67.804C33.9096 67.5142 34.4267 67.3693 35.0176 67.3693C35.3585 67.3693 35.6951 67.4261 36.0275 67.5398C36.3599 67.6534 36.6625 67.8381 36.9352 68.0938C37.2079 68.3466 37.4252 68.6818 37.5872 69.0994C37.7491 69.517 37.8301 70.0312 37.8301 70.642V71.0682H32.7846V70.1989H36.8074C36.8074 69.8295 36.7335 69.5 36.5858 69.2102C36.4409 68.9205 36.2335 68.6918 35.9636 68.5241C35.6966 68.3565 35.3812 68.2727 35.0176 68.2727C34.617 68.2727 34.2704 68.3722 33.9778 68.571C33.688 68.767 33.465 69.0227 33.3088 69.3381C33.1525 69.6534 33.0744 69.9915 33.0744 70.3523V70.9318C33.0744 71.4261 33.1596 71.8452 33.3301 72.1889C33.5034 72.5298 33.7434 72.7898 34.0502 72.9688C34.3571 73.1449 34.7136 73.233 35.1199 73.233C35.3841 73.233 35.6227 73.196 35.8358 73.1222C36.0517 73.0455 36.2377 72.9318 36.394 72.7812C36.5502 72.6278 36.671 72.4375 36.7562 72.2102L37.7278 72.483C37.6255 72.8125 37.4537 73.1023 37.2122 73.3523C36.9707 73.5994 36.6724 73.7926 36.3173 73.9318C35.9622 74.0682 35.563 74.1364 35.1199 74.1364ZM40.3656 70.0625V74H39.3599V67.4545H40.3315V68.4773H40.4167C40.5701 68.1449 40.8031 67.8778 41.1156 67.6761C41.4281 67.4716 41.8315 67.3693 42.3258 67.3693C42.769 67.3693 43.1568 67.4602 43.4892 67.642C43.8216 67.821 44.0801 68.0938 44.2647 68.4602C44.4494 68.8239 44.5417 69.2841 44.5417 69.8409V74H43.536V69.9091C43.536 69.3949 43.4025 68.9943 43.1355 68.7074C42.8684 68.4176 42.502 68.2727 42.036 68.2727C41.715 68.2727 41.4281 68.3423 41.1752 68.4815C40.9252 68.6207 40.7278 68.8239 40.5829 69.0909C40.438 69.358 40.3656 69.6818 40.3656 70.0625ZM48.851 74.1364C48.3056 74.1364 47.824 73.9986 47.4064 73.723C46.9888 73.4446 46.6621 73.0526 46.4263 72.5469C46.1905 72.0384 46.0726 71.4375 46.0726 70.7443C46.0726 70.0568 46.1905 69.4602 46.4263 68.9545C46.6621 68.4489 46.9902 68.0582 47.4107 67.7827C47.8311 67.5071 48.3169 67.3693 48.8681 67.3693C49.2942 67.3693 49.6309 67.4403 49.878 67.5824C50.128 67.7216 50.3184 67.8807 50.449 68.0597C50.5826 68.2358 50.6863 68.3807 50.7601 68.4943H50.8453V65.2727H51.851V74H50.8794V72.9943H50.7601C50.6863 73.1136 50.5811 73.2642 50.4448 73.446C50.3084 73.625 50.1138 73.7855 49.861 73.9276C49.6081 74.0668 49.2715 74.1364 48.851 74.1364ZM48.9874 73.233C49.3908 73.233 49.7317 73.1278 50.0101 72.9176C50.2885 72.7045 50.5002 72.4105 50.6451 72.0355C50.79 71.6577 50.8624 71.2216 50.8624 70.7273C50.8624 70.2386 50.7914 69.8111 50.6493 69.4446C50.5073 69.0753 50.2971 68.7884 50.0186 68.5838C49.7402 68.3764 49.3965 68.2727 48.9874 68.2727C48.5613 68.2727 48.2061 68.3821 47.9221 68.6009C47.6408 68.8168 47.4292 69.1108 47.2871 69.483C47.1479 69.8523 47.0783 70.267 47.0783 70.7273C47.0783 71.1932 47.1493 71.6165 47.2914 71.9972C47.4363 72.375 47.6493 72.6761 47.9306 72.9006C48.2147 73.1222 48.5669 73.233 48.9874 73.233ZM53.8326 74V67.4545H54.8382V74H53.8326ZM54.3439 66.3636C54.1479 66.3636 53.9789 66.2969 53.8368 66.1634C53.6976 66.0298 53.628 65.8693 53.628 65.6818C53.628 65.4943 53.6976 65.3338 53.8368 65.2003C53.9789 65.0668 54.1479 65 54.3439 65C54.54 65 54.7076 65.0668 54.8468 65.2003C54.9888 65.3338 55.0598 65.4943 55.0598 65.6818C55.0598 65.8693 54.9888 66.0298 54.8468 66.1634C54.7076 66.2969 54.54 66.3636 54.3439 66.3636ZM57.6859 70.0625V74H56.6802V67.4545H57.6518V68.4773H57.737C57.8904 68.1449 58.1234 67.8778 58.4359 67.6761C58.7484 67.4716 59.1518 67.3693 59.6461 67.3693C60.0893 67.3693 60.4771 67.4602 60.8095 67.642C61.1419 67.821 61.4004 68.0938 61.585 68.4602C61.7697 68.8239 61.862 69.2841 61.862 69.8409V74H60.8564V69.9091C60.8564 69.3949 60.7228 68.9943 60.4558 68.7074C60.1887 68.4176 59.8223 68.2727 59.3564 68.2727C59.0353 68.2727 58.7484 68.3423 58.4956 68.4815C58.2456 68.6207 58.0481 68.8239 57.9032 69.0909C57.7583 69.358 57.6859 69.6818 57.6859 70.0625ZM66.3418 76.5909C65.856 76.5909 65.4384 76.5284 65.089 76.4034C64.7395 76.2812 64.4483 76.1193 64.2154 75.9176C63.9853 75.7188 63.802 75.5057 63.6657 75.2784L64.4668 74.7159C64.5577 74.8352 64.6728 74.9716 64.812 75.125C64.9512 75.2812 65.1415 75.4162 65.383 75.5298C65.6273 75.6463 65.9469 75.7045 66.3418 75.7045C66.8702 75.7045 67.3063 75.5767 67.65 75.321C67.9938 75.0653 68.1657 74.6648 68.1657 74.1193V72.7898H68.0804C68.0066 72.9091 67.9015 73.0568 67.7651 73.233C67.6316 73.4062 67.4384 73.5611 67.1855 73.6974C66.9355 73.831 66.5975 73.8977 66.1713 73.8977C65.6429 73.8977 65.1685 73.7727 64.748 73.5227C64.3304 73.2727 63.9995 72.9091 63.7551 72.4318C63.5137 71.9545 63.3929 71.375 63.3929 70.6932C63.3929 70.0227 63.5108 69.4389 63.7466 68.9418C63.9824 68.4418 64.3105 68.0554 64.731 67.7827C65.1515 67.5071 65.6373 67.3693 66.1884 67.3693C66.6145 67.3693 66.9526 67.4403 67.2026 67.5824C67.4554 67.7216 67.6486 67.8807 67.7821 68.0597C67.9185 68.2358 68.0236 68.3807 68.0975 68.4943H68.1998V67.4545H69.1713V74.1875C69.1713 74.75 69.0435 75.2074 68.7878 75.5597C68.535 75.9148 68.1941 76.1747 67.7651 76.3395C67.339 76.5071 66.8645 76.5909 66.3418 76.5909ZM66.3077 72.9943C66.7111 72.9943 67.052 72.902 67.3304 72.7173C67.6088 72.5327 67.8205 72.267 67.9654 71.9205C68.1103 71.5739 68.1827 71.1591 68.1827 70.6761C68.1827 70.2045 68.1117 69.7884 67.9696 69.4276C67.8276 69.0668 67.6174 68.7841 67.339 68.5795C67.0605 68.375 66.7168 68.2727 66.3077 68.2727C65.8816 68.2727 65.5265 68.3807 65.2424 68.5966C64.9611 68.8125 64.7495 69.1023 64.6074 69.4659C64.4682 69.8295 64.3986 70.233 64.3986 70.6761C64.3986 71.1307 64.4696 71.5327 64.6117 71.8821C64.7566 72.2287 64.9696 72.5014 65.2509 72.7003C65.535 72.8963 65.8873 72.9943 66.3077 72.9943Z" fill="#DFAC54"/>
<rect x="341.5" width="36" height="36" rx="18" fill="#424B57"/>
<path d="M365.783 12.7225L363.225 10.0362C362.442 9.21369 361.383 8.75873 360.275 8.75873H356.167C353.667 8.75873 352 10.5087 352 13.1337V21.8837C352 24.5087 353.667 26.2587 356.167 26.2587H362.833C365.333 26.2587 367 24.5087 367 21.8837V15.82C367 14.6475 366.558 13.5362 365.783 12.7225Z" stroke="white" stroke-linecap="round" stroke-linejoin="round"/>
<path d="M357.417 19.25L355.75 21L357.417 22.75" stroke="white" stroke-linecap="round" stroke-linejoin="round"/>
<path d="M361.583 19.25L363.25 21L361.583 22.75" stroke="white" stroke-linecap="round" stroke-linejoin="round"/>
</svg>
