<svg width="1680" height="1680" viewBox="0 0 1680 1680" fill="none" xmlns="http://www.w3.org/2000/svg">
<path d="M1680 840C1680 889.84 1675.66 938.66 1667.34 986.11C1598.19 1380.38 1254.08 1680 840 1680C827.28 1680 814.63 1679.72 802.05 1679.16C355.74 1659.31 0 1291.2 0 840C0 388.8 376.08 0 840 0C1303.92 0 1680 376.08 1680 840Z" fill="#1176FF"/>
<path d="M1667.34 986.11C1598.19 1380.38 1254.08 1680 840 1680C827.28 1680 814.63 1679.72 802.05 1679.16C614.99 1492.06 460.2 1337.15 458.99 1335.76C434.63 1314.67 421.39 1282.51 425.06 1249.15C433.21 1174.94 456.73 1101.07 510.49 1067.61C609.56 1005.96 707.9 979.69 707.9 979.69C711.37 968.91 715.26 933.23 717.3 896.71C704.75 883.68 692.32 870.08 679.21 857.19C658.03 836.37 652.79 807.98 646.25 772.23C641.57 770.15 638.9 766.13 636.49 762.45C636.47 762.42 636.45 762.38 636.42 762.34C631.67 760.28 628.98 756.22 626.55 752.51C626.53 752.48 626.51 752.44 626.48 752.4C621.73 750.34 619.04 746.28 616.61 742.58C613.65 738.04 612.48 732.61 611.38 727.31C607.39 708.24 603.4 689.18 599.42 670.12C596.42 655.8 593.41 641.13 595.44 626.64C596.42 619.79 598.85 612.61 604.48 608.58C610.1 604.55 619.5 605.52 622.32 611.85C622.32 611.85 613.2 522.12 613.2 529.67C605.58 521.21 599.55 502.79 602.07 488.55C604.59 474.32 609.12 460.47 611.38 446.2C613.84 430.52 613.59 414.35 618.09 399.13C624.43 377.68 639.6 360.1 655.04 343.91C665.98 332.45 677.29 321.31 689.62 311.38C714.33 291.52 743.78 276.58 775.29 273.05C785.4 271.92 795.6 271.97 805.77 272.02C817.17 272.08 828.59 272.13 840 272.19C851.41 272.13 862.83 272.08 874.23 272.02C884.4 271.97 894.6 271.92 904.71 273.05C936.22 276.58 965.67 291.52 990.38 311.38C1001.15 320.05 1011.13 329.64 1020.77 339.57C1022.78 341.51 1378.99 697.72 1667.34 986.11Z" fill="#1052E5"/>
<path d="M1193.46 1352.68C1131.3 1378.11 1019.94 1408 840 1408C660.06 1408 548.7 1378.1 486.54 1352.68C445.21 1335.78 420.18 1293.54 425.06 1249.15C433.21 1174.94 456.74 1101.07 510.5 1067.62C609.57 1005.97 707.91 979.7 707.91 979.7C711.37 968.92 715.27 933.24 717.31 896.72C704.76 883.69 692.33 870.09 679.21 857.2C654.24 832.66 651.44 797.6 642.52 752.36C626.14 757.01 620.96 749.22 616.62 742.59C613.66 738.06 612.49 732.62 611.38 727.32C607.39 708.26 603.41 689.19 599.42 670.13C596.42 655.81 593.41 641.14 595.45 626.65C596.42 619.8 598.86 612.62 604.48 608.59C610.11 604.57 619.5 605.54 622.32 611.86C622.32 611.86 613.2 522.13 613.2 529.69C605.58 521.23 599.55 502.81 602.08 488.57C604.6 474.34 609.12 460.49 611.38 446.22C613.85 430.55 613.59 414.37 618.09 399.15C624.44 377.7 639.61 360.12 655.04 343.93C665.98 332.47 677.29 321.33 689.62 311.4C714.33 291.54 743.78 276.6 775.28 273.07C785.39 271.94 795.59 271.99 805.76 272.04C817.17 272.1 828.58 272.15 839.99 272.21C851.4 272.15 862.82 272.1 874.22 272.04C884.39 271.99 894.59 271.94 904.7 273.07C936.21 276.6 965.66 291.54 990.36 311.4C1002.7 321.33 1014.01 332.47 1024.94 343.93C1040.38 360.11 1055.55 377.69 1061.89 399.15C1066.39 414.37 1066.13 430.54 1068.6 446.22C1070.86 460.49 1075.38 474.34 1077.9 488.57C1080.43 502.81 1074.39 521.23 1066.78 529.69C1066.78 522.14 1057.66 611.86 1057.66 611.86C1060.48 605.54 1069.88 604.57 1075.5 608.59C1081.13 612.62 1083.56 619.8 1084.53 626.65C1086.56 641.14 1083.55 655.81 1080.56 670.13C1076.58 689.19 1072.59 708.26 1068.6 727.32C1067.49 732.62 1066.33 738.05 1063.36 742.59C1059.01 749.22 1053.83 757.02 1037.46 752.36C1028.55 797.6 1025.74 832.66 1000.77 857.2C987.66 870.09 975.22 883.69 962.67 896.72C964.71 933.25 968.6 968.92 972.07 979.7C972.07 979.7 1070.41 1005.97 1169.48 1067.62C1223.24 1101.08 1246.76 1174.95 1254.92 1249.15C1259.79 1293.54 1234.76 1335.78 1193.44 1352.68H1193.46Z" fill="white"/>
</svg>
