<svg width="22" height="20" viewBox="0 0 22 20" fill="none" xmlns="http://www.w3.org/2000/svg">
<path d="M19.7237 15.275C19.7237 15.575 19.6537 15.8834 19.505 16.1834C19.3562 16.4834 19.1638 16.7667 18.91 17.0334C18.4813 17.4834 18.0087 17.8084 17.475 18.0167C16.95 18.225 16.3813 18.3334 15.7688 18.3334C14.8763 18.3334 13.9225 18.1334 12.9162 17.725C11.91 17.3167 10.9037 16.7667 9.90625 16.075C8.9 15.375 7.94625 14.6 7.03625 13.7417C6.135 12.875 5.32125 11.9667 4.595 11.0167C3.8775 10.0667 3.3 9.11669 2.88 8.17502C2.46 7.22502 2.25 6.31669 2.25 5.45002C2.25 4.88335 2.355 4.34169 2.565 3.84169C2.775 3.33335 3.1075 2.86669 3.57125 2.45002C4.13125 1.92502 4.74375 1.66669 5.39125 1.66669C5.63625 1.66669 5.88125 1.71669 6.1 1.81669C6.3275 1.91669 6.52875 2.06669 6.68625 2.28335L8.71625 5.00835C8.87375 5.21669 8.9875 5.40835 9.06625 5.59169C9.145 5.76669 9.18875 5.94169 9.18875 6.10002C9.18875 6.30002 9.1275 6.50002 9.005 6.69169C8.89125 6.88335 8.725 7.08335 8.515 7.28335L7.85 7.94169C7.75375 8.03335 7.71 8.14169 7.71 8.27502C7.71 8.34169 7.71875 8.40002 7.73625 8.46669C7.7625 8.53335 7.78875 8.58335 7.80625 8.63335C7.96375 8.90835 8.235 9.26669 8.62 9.70002C9.01375 10.1334 9.43375 10.575 9.88875 11.0167C10.3612 11.4584 10.8162 11.8667 11.28 12.2417C11.735 12.6084 12.1112 12.8584 12.4087 13.0084C12.4525 13.025 12.505 13.05 12.5662 13.075C12.6362 13.1 12.7062 13.1084 12.785 13.1084C12.9337 13.1084 13.0475 13.0584 13.1437 12.9667L13.8088 12.3417C14.0275 12.1334 14.2375 11.975 14.4388 11.875C14.64 11.7584 14.8412 11.7 15.06 11.7C15.2262 11.7 15.4013 11.7334 15.5938 11.8084C15.7862 11.8834 15.9875 11.9917 16.2063 12.1334L19.1025 14.0917C19.33 14.2417 19.4875 14.4167 19.5837 14.625C19.6712 14.8334 19.7237 15.0417 19.7237 15.275Z" stroke="white" stroke-miterlimit="10"/>
<path d="M16.6875 7.50004C16.6875 7.00004 16.2762 6.23337 15.6637 5.60837C15.1037 5.03337 14.36 4.58337 13.625 4.58337" stroke="white" stroke-linecap="round" stroke-linejoin="round"/>
<path d="M19.75 7.50002C19.75 4.27502 17.0112 1.66669 13.625 1.66669" stroke="white" stroke-linecap="round" stroke-linejoin="round"/>
</svg>
