<svg width="35" height="35" viewBox="0 0 35 35" fill="none" xmlns="http://www.w3.org/2000/svg">
<path d="M18.2752 29.1715H9.05853C4.4502 29.1715 2.91895 26.1715 2.91895 23.1573V11.1287C2.91895 6.61439 4.4502 5.1144 9.05853 5.1144H18.2752C22.8835 5.1144 24.4148 6.61439 24.4148 11.1287V23.1573C24.4148 27.6715 22.8689 29.1715 18.2752 29.1715Z" stroke="white" stroke-width="2" stroke-linecap="round" stroke-linejoin="round"/>
<path d="M28.4682 24.4288L24.4141 21.643V12.6288L28.4682 9.84304C30.4516 8.4859 32.0849 9.31447 32.0849 11.7002V22.5859C32.0849 24.9716 30.4516 25.8002 28.4682 24.4288Z" stroke="white" stroke-width="2" stroke-linecap="round" stroke-linejoin="round"/>
<path d="M16.7686 15.7143C17.9767 15.7143 18.9561 14.7549 18.9561 13.5714C18.9561 12.388 17.9767 11.4286 16.7686 11.4286C15.5604 11.4286 14.5811 12.388 14.5811 13.5714C14.5811 14.7549 15.5604 15.7143 16.7686 15.7143Z" stroke="white" stroke-width="2" stroke-linecap="round" stroke-linejoin="round"/>
</svg>
