<svg width="20" height="20" viewBox="0 0 20 20" fill="none" xmlns="http://www.w3.org/2000/svg">
<path d="M9.53197 15.1048C10.4119 15.1037 11.2554 14.7537 11.8776 14.1315C12.4998 13.5093 12.8498 12.6658 12.8508 11.7859V5.97323C12.8519 5.62433 12.7836 5.27868 12.6501 4.95634C12.5166 4.634 12.3204 4.34137 12.0729 4.09542L10.5847 2.60724C10.3388 2.35977 10.0461 2.16357 9.72379 2.03003C9.40145 1.89649 9.05581 1.82826 8.7069 1.8293H5.54933C4.66944 1.83035 3.82589 2.18035 3.20371 2.80253C2.58153 3.42471 2.23152 4.26827 2.23047 5.14816V11.7859C2.23152 12.6658 2.58153 13.5093 3.20371 14.1315C3.82589 14.7537 4.66944 15.1037 5.54933 15.1048H9.53197ZM3.55802 11.7859V5.14816C3.55802 4.62003 3.76781 4.11353 4.14126 3.74009C4.5147 3.36664 5.0212 3.15684 5.54933 3.15684C5.54933 3.15684 8.81444 3.16614 8.8682 3.17277V4.48439C8.8682 4.83648 9.00807 5.17414 9.25703 5.42311C9.50599 5.67207 9.84366 5.81193 10.1957 5.81193H11.5074C11.514 5.8657 11.5233 11.7859 11.5233 11.7859C11.5233 12.314 11.3135 12.8205 10.94 13.194C10.5666 13.5674 10.0601 13.7772 9.53197 13.7772H5.54933C5.0212 13.7772 4.5147 13.5674 4.14126 13.194C3.76781 12.8205 3.55802 12.314 3.55802 11.7859ZM15.5059 7.13948V14.441C15.5049 15.3209 15.1549 16.1644 14.5327 16.7866C13.9105 17.4088 13.067 17.7588 12.1871 17.7598H6.21311C6.03706 17.7598 5.86823 17.6899 5.74375 17.5654C5.61927 17.441 5.54933 17.2721 5.54933 17.0961C5.54933 16.92 5.61927 16.7512 5.74375 16.6267C5.86823 16.5022 6.03706 16.4323 6.21311 16.4323H12.1871C12.7152 16.4323 13.2217 16.2225 13.5951 15.8491C13.9686 15.4756 14.1784 14.9691 14.1784 14.441V7.13948C14.1784 6.96344 14.2483 6.7946 14.3728 6.67012C14.4973 6.54564 14.6661 6.47571 14.8422 6.47571C15.0182 6.47571 15.187 6.54564 15.3115 6.67012C15.436 6.7946 15.5059 6.96344 15.5059 7.13948Z" fill="white"/>
</svg>
