<svg width="84" height="85" viewBox="0 0 84 85" fill="none" xmlns="http://www.w3.org/2000/svg">
<path d="M57 33.5C57 41.5081 50.5081 48 42.5 48C34.4919 48 28 41.5081 28 33.5C28 25.4919 34.4919 19 42.5 19C50.5081 19 57 25.4919 57 33.5Z" fill="#FAF8F5" stroke="#FAF8F5" stroke-width="6" stroke-miterlimit="10"/>
<mask id="path-2-inside-1_652_538" fill="white">
<path d="M16 68.9995C18.6867 64.4388 22.5499 60.6517 27.2016 58.0189C31.8532 55.386 37.1294 53.9999 42.5002 54C47.8709 54.0001 53.1471 55.3862 57.7987 58.0192C62.4502 60.6521 66.3134 64.4392 69 69"/>
</mask>
<path d="M16 68.9995C18.6867 64.4388 22.5499 60.6517 27.2016 58.0189C31.8532 55.386 37.1294 53.9999 42.5002 54C47.8709 54.0001 53.1471 55.3862 57.7987 58.0192C62.4502 60.6521 66.3134 64.4392 69 69" fill="#FAF8F5"/>
<path d="M10.8304 65.954C9.1484 68.8091 10.0994 72.4872 12.9545 74.1691C15.8097 75.8511 19.4877 74.9 21.1696 72.0449L10.8304 65.954ZM63.8303 72.0453C65.5122 74.9005 69.1902 75.8516 72.0453 74.1697C74.9005 72.4878 75.8516 68.8098 74.1697 65.9547L63.8303 72.0453ZM21.1696 72.0449C23.3165 68.4006 26.4122 65.3601 30.1571 63.2405L24.2461 52.7973C18.6877 55.9434 14.0569 60.477 10.8304 65.954L21.1696 72.0449ZM30.1571 63.2405C33.9027 61.1204 38.16 60 42.5001 60L42.5002 48C36.0988 47.9999 29.8037 49.6516 24.2461 52.7973L30.1571 63.2405ZM42.5001 60C46.8402 60 51.0975 61.1206 54.8431 63.2407L60.7543 52.7976C55.1967 49.6518 48.9016 48.0001 42.5002 48L42.5001 60ZM54.8431 63.2407C58.5879 65.3604 61.6835 68.4009 63.8303 72.0453L74.1697 65.9547C70.9433 60.4775 66.3126 55.9439 60.7543 52.7976L54.8431 63.2407Z" fill="#FAF8F5" mask="url(#path-2-inside-1_652_538)"/>
</svg>
