<svg width="61" height="61" viewBox="0 0 61 61" fill="none" xmlns="http://www.w3.org/2000/svg">
<circle cx="30.5" cy="30.5" r="30" fill="#161517" stroke="#373636"/>
<mask id="mask0_1_1381" style="mask-type:alpha" maskUnits="userSpaceOnUse" x="1" y="1" width="59" height="59">
<circle cx="30.5028" cy="30.4988" r="28.7098" fill="white"/>
</mask>
<g mask="url(#mask0_1_1381)">
<path d="M15.3516 48.343L33.9099 63.2769C49.1683 61.4822 61.0005 48.505 61.0005 32.7548C61.0005 32.4247 60.9945 32.0946 60.9825 31.7704L45.1302 18.4632L44.7042 18.085L44.2902 18.1931L43.4501 17.5028L41.2901 15.3599L39.5501 17.8329L24.6338 19.3095L20.1277 15.3359L15.3516 21.0502L17.2536 31.1342L23.8297 36.3022L22.2097 42.8748L15.3516 48.343Z" fill="url(#paint0_linear_1_1381)" fill-opacity="0.6"/>
<path d="M40.816 16.8633H41.0924C44.271 16.8633 46.8668 19.4501 46.8668 22.6044V44.1651C46.8668 47.3254 44.265 49.9062 41.0924 49.9062H40.816V25.0299C42.0298 25.0299 43.0092 24.0501 43.0092 22.8493C43.0092 21.6426 42.0238 20.6688 40.816 20.6688V16.8633ZM19.6896 16.8633H40.816V20.6628C39.6023 20.6628 38.6169 21.6426 38.6169 22.8434C38.6169 24.0501 39.6023 25.0239 40.816 25.0239V49.9062H19.6896V25.0299C20.9033 25.0299 21.8887 24.0501 21.8887 22.8493C21.8887 21.6426 20.9033 20.6688 19.6896 20.6688V16.8633ZM19.4071 16.8633H19.6835V20.6628C18.4698 20.6628 17.4904 21.6426 17.4904 22.8434C17.4904 24.0501 18.4758 25.0239 19.6835 25.0239V49.9062H19.4071C16.2286 49.9062 13.6328 47.3194 13.6328 44.1651V22.6044C13.6328 19.4501 16.2346 16.8633 19.4071 16.8633Z" fill="white"/>
<path d="M40.816 16.8633H41.0924C44.271 16.8633 46.8668 19.462 46.8668 22.631V26.6042H40.816V25.0618C42.0298 25.0618 43.0092 24.0775 43.0092 22.8711C43.0092 21.6587 42.0238 20.6804 40.816 20.6804V16.8633ZM19.6896 16.8633H40.816V20.6804C39.6023 20.6804 38.6169 21.6647 38.6169 22.8711C38.6169 24.0835 39.6023 25.0618 40.816 25.0618V26.6042H19.6896V25.0618C20.9033 25.0618 21.8887 24.0775 21.8887 22.8711C21.8887 21.6587 20.9033 20.6804 19.6896 20.6804V16.8633ZM19.4071 16.8633H19.6835V20.6804C18.4698 20.6804 17.4904 21.6647 17.4904 22.8711C17.4904 24.0835 18.4758 25.0618 19.6835 25.0618V26.6042H13.6328V22.631C13.6328 19.462 16.2346 16.8633 19.4071 16.8633Z" fill="url(#paint1_linear_1_1381)"/>
<path d="M19.6455 15.1445C20.116 15.1445 20.502 15.5304 20.502 16.0008V21.9283C20.502 22.3986 20.116 22.7845 19.6455 22.7845C19.1751 22.7845 18.7891 22.3986 18.7891 21.9283V16.0008C18.7891 15.5244 19.1691 15.1445 19.6455 15.1445ZM40.8526 15.1445C41.323 15.1445 41.709 15.5304 41.709 16.0008V21.9283C41.709 22.3986 41.323 22.7845 40.8526 22.7845C40.3821 22.7845 39.9961 22.3986 39.9961 21.9283V16.0008C40.0021 15.5244 40.3821 15.1445 40.8526 15.1445Z" fill="white"/>
<path d="M26.3574 46.1936H23.3883V34.986C22.3032 36.0011 21.0273 36.7534 19.5547 37.243V34.5441C20.3298 34.2874 21.1704 33.8097 22.0826 33.0992C22.9889 32.3886 23.6149 31.5646 23.9547 30.6152H26.3634V46.1936H26.3574ZM33.345 37.8222C32.5759 37.4998 32.0214 37.052 31.6696 36.4847C31.3238 35.9175 31.145 35.2965 31.145 34.6158C31.145 33.4574 31.5504 32.5021 32.3553 31.7497C33.1602 30.9974 34.3109 30.6152 35.7954 30.6152C37.268 30.6152 38.4128 30.9914 39.2236 31.7497C40.0345 32.5021 40.4458 33.4634 40.4458 34.6158C40.4458 35.3383 40.261 35.9772 39.8854 36.5385C39.5098 37.0997 38.9851 37.5296 38.3114 37.8222C39.17 38.1685 39.8258 38.6701 40.2729 39.3329C40.7201 39.9957 40.9467 40.76 40.9467 41.6317C40.9467 43.0648 40.4876 44.2291 39.5754 45.1247C38.6632 46.0204 37.4469 46.4682 35.9325 46.4682C34.5255 46.4682 33.351 46.098 32.4149 45.3576C31.306 44.4799 30.7575 43.2857 30.7575 41.7571C30.7575 40.9152 30.9661 40.1449 31.3835 39.4463C31.7949 38.7418 32.4507 38.2044 33.345 37.8222ZM33.6848 41.4705C33.6848 42.2885 33.8935 42.9274 34.3109 43.3872C34.7282 43.847 35.2529 44.0739 35.8789 44.0739C36.493 44.0739 36.9998 43.8529 37.3992 43.4111C37.7987 42.9692 38.0014 42.3363 38.0014 41.5004C38.0014 40.7719 37.7987 40.1867 37.3873 39.7509C36.9759 39.309 36.4632 39.0881 35.8312 39.0881C35.1038 39.0881 34.5672 39.3389 34.2095 39.8404C33.8637 40.342 33.6848 40.8853 33.6848 41.4705ZM33.9591 34.8248C33.9591 35.4159 34.126 35.8817 34.4599 36.2101C34.7938 36.5444 35.2409 36.7056 35.7954 36.7056C36.3618 36.7056 36.809 36.5385 37.1488 36.2041C37.4886 35.8697 37.6556 35.404 37.6556 34.8128C37.6556 34.2575 37.4886 33.8097 37.1548 33.4753C36.8209 33.141 36.3797 32.9738 35.8312 32.9738C35.2588 32.9738 34.8057 33.141 34.4659 33.4813C34.126 33.8217 33.9591 34.2695 33.9591 34.8248Z" fill="#0C7CAC"/>
</g>
<defs>
<linearGradient id="paint0_linear_1_1381" x1="38.176" y1="15.3359" x2="38.176" y2="63.2769" gradientUnits="userSpaceOnUse">
<stop stop-color="#AB3172"/>
<stop offset="1" stop-color="white" stop-opacity="0"/>
</linearGradient>
<linearGradient id="paint1_linear_1_1381" x1="30.2498" y1="16.8633" x2="30.2498" y2="26.6042" gradientUnits="userSpaceOnUse">
<stop stop-color="#AB3172"/>
<stop offset="1" stop-color="#631767"/>
</linearGradient>
</defs>
</svg>
