<svg width="21" height="20" viewBox="0 0 21 20" fill="none" xmlns="http://www.w3.org/2000/svg">
<path d="M10.942 17.0167H5.67533C3.04199 17.0167 2.16699 15.2667 2.16699 13.5083V6.49167C2.16699 3.85834 3.04199 2.98334 5.67533 2.98334H10.942C13.5753 2.98334 14.4503 3.85834 14.4503 6.49167V13.5083C14.4503 16.1417 13.567 17.0167 10.942 17.0167Z" stroke="white" stroke-linecap="round" stroke-linejoin="round"/>
<path d="M16.7669 14.25L14.4502 12.625V7.36665L16.7669 5.74165C17.9002 4.94999 18.8335 5.43332 18.8335 6.82499V13.175C18.8335 14.5667 17.9002 15.05 16.7669 14.25Z" stroke="white" stroke-linecap="round" stroke-linejoin="round"/>
<path d="M10.083 9.16669C10.7734 9.16669 11.333 8.60704 11.333 7.91669C11.333 7.22633 10.7734 6.66669 10.083 6.66669C9.39265 6.66669 8.83301 7.22633 8.83301 7.91669C8.83301 8.60704 9.39265 9.16669 10.083 9.16669Z" stroke="white" stroke-linecap="round" stroke-linejoin="round"/>
</svg>
