<svg width="167" height="36" viewBox="0 0 167 36" fill="none" xmlns="http://www.w3.org/2000/svg">
<g clip-path="url(#clip0_1503_3425)">
<circle cx="16" cy="20" r="16" fill="#4640DE"/>
<mask id="path-2-inside-1_1503_3425" fill="white">
<path d="M16 32C18.6652 32 21.3304 29.8953 23.0607 28.179C23.4599 27.7831 22.9792 27.2122 22.4822 27.4749C20.6013 28.469 18.0181 29.6 16 29.6C13.9819 29.6 11.3987 28.469 9.5178 27.4749C9.02076 27.2122 8.54012 27.7831 8.93926 28.179C10.6696 29.8953 13.3348 32 16 32Z"/>
</mask>
<path d="M23.0607 28.179L25.1734 30.3089V30.3089L23.0607 28.179ZM8.93926 28.179L6.82658 30.3089H6.82658L8.93926 28.179ZM9.5178 27.4749L10.9197 24.8226L10.9197 24.8226L9.5178 27.4749ZM22.4822 27.4749L21.0803 24.8226L21.0803 24.8226L22.4822 27.4749ZM20.948 26.0491C20.1783 26.8126 19.2652 27.5953 18.3201 28.1712C17.3491 28.7627 16.5672 29 16 29V35C18.098 35 19.9813 34.1849 21.4419 33.2951C22.9282 32.3895 24.2129 31.2616 25.1734 30.3089L20.948 26.0491ZM16 29C15.4328 29 14.6509 28.7627 13.6799 28.1712C12.7348 27.5953 11.8217 26.8126 11.052 26.0491L6.82658 30.3089C7.78708 31.2616 9.07177 32.3895 10.5581 33.2951C12.0187 34.1849 13.902 35 16 35V29ZM8.11593 30.1272C9.1314 30.6639 10.3827 31.2629 11.6934 31.7336C12.967 32.1911 14.4921 32.6 16 32.6V26.6C15.4899 26.6 14.7143 26.4434 13.7216 26.0868C12.7658 25.7436 11.7851 25.28 10.9197 24.8226L8.11593 30.1272ZM16 32.6C17.5079 32.6 19.033 32.1911 20.3066 31.7336C21.6173 31.2629 22.8686 30.6639 23.8841 30.1272L21.0803 24.8226C20.2149 25.28 19.2342 25.7436 18.2785 26.0868C17.2857 26.4434 16.5101 26.6 16 26.6V32.6ZM25.1734 30.3089C25.7674 29.7197 26.1776 28.8995 26.2071 27.9593C26.2356 27.0551 25.905 26.2526 25.4152 25.663C24.4114 24.4547 22.6321 24.0024 21.0803 24.8226L23.8841 30.1272C22.8293 30.6847 21.5389 30.3865 20.7999 29.4969C20.4425 29.0667 20.1883 28.4648 20.2101 27.7708C20.2331 27.0407 20.5536 26.4403 20.948 26.0491L25.1734 30.3089ZM11.052 26.0491C11.4464 26.4403 11.7669 27.0407 11.7899 27.7708C11.8117 28.4648 11.5575 29.0667 11.2001 29.4969C10.4611 30.3865 9.17068 30.6847 8.11593 30.1272L10.9197 24.8226C9.36787 24.0024 7.5886 24.4547 6.58483 25.663C6.09504 26.2526 5.76443 27.0551 5.79286 27.9593C5.82241 28.8995 6.23259 29.7197 6.82658 30.3089L11.052 26.0491Z" fill="white" mask="url(#path-2-inside-1_1503_3425)"/>
<circle cx="15.8055" cy="18.1946" r="7.49047" transform="rotate(-90 15.8055 18.1946)" stroke="white" stroke-width="2" stroke-linecap="round" stroke-linejoin="round"/>
<path d="M21.4043 12.9849L24.3334 10.0482" stroke="white" stroke-width="2" stroke-linecap="round" stroke-linejoin="round"/>
</g>
<g clip-path="url(#clip1_1503_3425)">
<circle cx="16" cy="20" r="16" fill="#4640DE"/>
<mask id="path-7-inside-2_1503_3425" fill="white">
<path d="M16 31C18.6652 31 21.3304 28.8953 23.0607 27.179C23.4599 26.7831 22.9792 26.2122 22.4822 26.4749C20.6013 27.469 18.0181 28.6 16 28.6C13.9819 28.6 11.3987 27.469 9.5178 26.4749C9.02076 26.2122 8.54012 26.7831 8.93926 27.179C10.6696 28.8953 13.3348 31 16 31Z"/>
</mask>
<path d="M23.0607 27.179L25.1734 29.3089V29.3089L23.0607 27.179ZM8.93926 27.179L6.82658 29.3089H6.82658L8.93926 27.179ZM9.5178 26.4749L10.9197 23.8226L10.9197 23.8226L9.5178 26.4749ZM22.4822 26.4749L21.0803 23.8226L21.0803 23.8226L22.4822 26.4749ZM20.948 25.0491C20.1783 25.8126 19.2652 26.5953 18.3201 27.1712C17.3491 27.7627 16.5672 28 16 28V34C18.098 34 19.9813 33.1849 21.4419 32.2951C22.9282 31.3895 24.2129 30.2616 25.1734 29.3089L20.948 25.0491ZM16 28C15.4328 28 14.6509 27.7627 13.6799 27.1712C12.7348 26.5953 11.8217 25.8126 11.052 25.0491L6.82658 29.3089C7.78708 30.2616 9.07177 31.3895 10.5581 32.2951C12.0187 33.1849 13.902 34 16 34V28ZM8.11593 29.1272C9.1314 29.6639 10.3827 30.2629 11.6934 30.7336C12.967 31.1911 14.4921 31.6 16 31.6V25.6C15.4899 25.6 14.7143 25.4434 13.7216 25.0868C12.7658 24.7436 11.7851 24.28 10.9197 23.8226L8.11593 29.1272ZM16 31.6C17.5079 31.6 19.033 31.1911 20.3066 30.7336C21.6173 30.2629 22.8686 29.6639 23.8841 29.1272L21.0803 23.8226C20.2149 24.28 19.2342 24.7436 18.2785 25.0868C17.2857 25.4434 16.5101 25.6 16 25.6V31.6ZM25.1734 29.3089C25.7674 28.7197 26.1776 27.8995 26.2071 26.9593C26.2356 26.0551 25.905 25.2526 25.4152 24.663C24.4114 23.4547 22.6321 23.0024 21.0803 23.8226L23.8841 29.1272C22.8293 29.6847 21.5389 29.3865 20.7999 28.4969C20.4425 28.0667 20.1883 27.4648 20.2101 26.7708C20.2331 26.0407 20.5536 25.4403 20.948 25.0491L25.1734 29.3089ZM11.052 25.0491C11.4464 25.4403 11.7669 26.0407 11.7899 26.7708C11.8117 27.4648 11.5575 28.0667 11.2001 28.4969C10.4611 29.3865 9.17068 29.6847 8.11593 29.1272L10.9197 23.8226C9.36787 23.0024 7.5886 23.4547 6.58483 24.663C6.09504 25.2526 5.76443 26.0551 5.79286 26.9593C5.82241 27.8995 6.23259 28.7197 6.82658 29.3089L11.052 25.0491Z" fill="white" mask="url(#path-7-inside-2_1503_3425)"/>
<path d="M21.7119 13.3158C21.3919 12.9936 21.3919 12.4773 21.7119 12.1552L23.4303 10.0263L23.4303 9.98937C23.8656 9.55866 24.5715 9.55866 25.0068 9.98937C25.4421 10.4201 25.4421 11.1184 25.0068 11.5491L22.982 13.3158L22.9064 13.3828C22.7483 13.5077 22.5512 13.5766 22.3469 13.5766C22.1086 13.5766 21.8801 13.4828 21.7119 13.3158ZM8.66663 19.185C8.66663 17.2892 9.42782 15.4711 10.7828 14.1306C12.1377 12.79 13.9754 12.0369 15.8916 12.0369C19.8818 12.0369 23.1165 15.2372 23.1165 19.185C23.1165 23.1327 19.8818 26.333 15.8916 26.333C11.9013 26.333 8.66663 23.1327 8.66663 19.185Z" fill="white"/>
</g>
<path d="M49.096 27V13.272H43.432V10.2H58.216V13.272H52.576V27H49.096ZM61.0947 27.216C60.1987 27.216 59.4067 27.056 58.7187 26.736C58.0307 26.4 57.4947 25.944 57.1107 25.368C56.7267 24.792 56.5347 24.128 56.5347 23.376C56.5347 22.176 56.9827 21.248 57.8787 20.592C58.7907 19.92 60.0387 19.584 61.6227 19.584C62.7107 19.584 63.7347 19.752 64.6947 20.088V19.176C64.6947 18.456 64.4707 17.912 64.0227 17.544C63.5747 17.176 62.9187 16.992 62.0547 16.992C61.5267 16.992 60.9587 17.08 60.3507 17.256C59.7427 17.416 59.0387 17.672 58.2387 18.024L57.0387 15.6C58.0307 15.152 58.9747 14.816 59.8707 14.592C60.7827 14.368 61.6947 14.256 62.6067 14.256C64.2867 14.256 65.5907 14.664 66.5187 15.48C67.4627 16.28 67.9347 17.416 67.9347 18.888V27H64.6947V26.112C64.1827 26.496 63.6307 26.776 63.0387 26.952C62.4467 27.128 61.7987 27.216 61.0947 27.216ZM59.6547 23.304C59.6547 23.784 59.8627 24.168 60.2787 24.456C60.6947 24.728 61.2467 24.864 61.9347 24.864C62.4787 24.864 62.9827 24.8 63.4467 24.672C63.9107 24.528 64.3267 24.32 64.6947 24.048V22.224C64.2947 22.064 63.8787 21.944 63.4467 21.864C63.0147 21.784 62.5507 21.744 62.0547 21.744C61.3027 21.744 60.7107 21.888 60.2787 22.176C59.8627 22.448 59.6547 22.824 59.6547 23.304ZM70.1832 27V10.2L73.4712 9.648V27H70.1832ZM81.9226 27.24C80.6746 27.24 79.5386 26.952 78.5146 26.376C77.5066 25.8 76.7066 25.024 76.1146 24.048C75.5226 23.072 75.2266 21.976 75.2266 20.76C75.2266 19.544 75.5066 18.448 76.0666 17.472C76.6426 16.496 77.4186 15.72 78.3946 15.144C79.3706 14.568 80.4586 14.28 81.6586 14.28C82.8586 14.28 83.9226 14.576 84.8506 15.168C85.7786 15.76 86.5066 16.56 87.0346 17.568C87.5786 18.576 87.8506 19.72 87.8506 21V21.864H78.5866C78.7306 22.36 78.9626 22.808 79.2826 23.208C79.6186 23.608 80.0266 23.92 80.5066 24.144C81.0026 24.368 81.5306 24.48 82.0906 24.48C82.6506 24.48 83.1626 24.392 83.6266 24.216C84.1066 24.04 84.5146 23.792 84.8506 23.472L87.0106 25.44C86.2426 26.064 85.4506 26.52 84.6346 26.808C83.8346 27.096 82.9306 27.24 81.9226 27.24ZM78.5386 19.512H84.6106C84.4986 19.016 84.2906 18.584 83.9866 18.216C83.6986 17.832 83.3466 17.536 82.9306 17.328C82.5306 17.104 82.0826 16.992 81.5866 16.992C81.0746 16.992 80.6106 17.096 80.1946 17.304C79.7786 17.512 79.4266 17.808 79.1386 18.192C78.8666 18.56 78.6666 19 78.5386 19.512ZM89.6251 27V14.496H92.9131V15.528C93.8571 14.68 95.0251 14.256 96.4171 14.256C97.3931 14.256 98.2491 14.472 98.9851 14.904C99.7371 15.32 100.321 15.904 100.737 16.656C101.153 17.392 101.361 18.256 101.361 19.248V27H98.0731V19.728C98.0731 18.912 97.8411 18.272 97.3771 17.808C96.9131 17.328 96.2811 17.088 95.4811 17.088C94.9211 17.088 94.4251 17.2 93.9931 17.424C93.5611 17.632 93.2011 17.936 92.9131 18.336V27H89.6251ZM109.188 27.192C107.796 27.192 106.74 26.88 106.02 26.256C105.316 25.616 104.964 24.688 104.964 23.472V17.232H102.396V14.496H104.964V11.304L108.252 10.56V14.496H111.828V17.232H108.252V22.8C108.252 23.376 108.38 23.792 108.636 24.048C108.892 24.288 109.34 24.408 109.98 24.408C110.3 24.408 110.588 24.392 110.844 24.36C111.116 24.312 111.412 24.232 111.732 24.12V26.832C111.396 26.944 110.972 27.032 110.46 27.096C109.964 27.16 109.54 27.192 109.188 27.192ZM119.408 27.24C118.048 27.24 116.72 26.992 115.424 26.496C114.128 25.984 112.976 25.264 111.968 24.336L113.96 21.84C114.936 22.704 115.872 23.328 116.768 23.712C117.68 24.096 118.64 24.288 119.648 24.288C120.352 24.288 120.96 24.208 121.472 24.048C121.984 23.872 122.376 23.624 122.648 23.304C122.936 22.984 123.08 22.608 123.08 22.176C123.08 21.6 122.872 21.16 122.456 20.856C122.04 20.536 121.328 20.288 120.32 20.112L116.984 19.536C115.56 19.296 114.472 18.792 113.72 18.024C112.984 17.256 112.616 16.264 112.616 15.048C112.616 14.008 112.88 13.104 113.408 12.336C113.952 11.568 114.712 10.984 115.688 10.584C116.68 10.168 117.856 9.96 119.216 9.96C120.448 9.96 121.672 10.168 122.888 10.584C124.12 11 125.208 11.576 126.152 12.312L124.28 14.904C122.52 13.56 120.752 12.888 118.976 12.888C118.352 12.888 117.808 12.968 117.344 13.128C116.88 13.288 116.52 13.512 116.264 13.8C116.024 14.072 115.904 14.4 115.904 14.784C115.904 15.296 116.088 15.696 116.456 15.984C116.824 16.256 117.44 16.464 118.304 16.608L121.472 17.136C123.152 17.408 124.408 17.944 125.24 18.744C126.072 19.528 126.488 20.568 126.488 21.864C126.488 22.952 126.2 23.904 125.624 24.72C125.048 25.52 124.224 26.144 123.152 26.592C122.096 27.024 120.848 27.24 119.408 27.24ZM128.965 32.16C128.677 32.16 128.397 32.144 128.125 32.112C127.869 32.096 127.653 32.072 127.477 32.04V29.208C127.797 29.272 128.181 29.304 128.629 29.304C129.829 29.304 130.661 28.736 131.125 27.6L131.317 27.12L126.445 14.496H130.069L133.189 23.016L136.717 14.496H140.269L134.509 28.008C134.077 29.016 133.605 29.824 133.093 30.432C132.581 31.04 131.989 31.48 131.317 31.752C130.661 32.024 129.877 32.16 128.965 32.16ZM141.353 27V14.496H144.641V15.528C145.585 14.68 146.753 14.256 148.145 14.256C149.121 14.256 149.977 14.472 150.713 14.904C151.465 15.32 152.049 15.904 152.465 16.656C152.881 17.392 153.089 18.256 153.089 19.248V27H149.801V19.728C149.801 18.912 149.569 18.272 149.105 17.808C148.641 17.328 148.009 17.088 147.209 17.088C146.649 17.088 146.153 17.2 145.721 17.424C145.289 17.632 144.929 17.936 144.641 18.336V27H141.353ZM161.315 27.24C160.083 27.24 158.971 26.96 157.979 26.4C156.987 25.824 156.203 25.048 155.627 24.072C155.051 23.08 154.763 21.976 154.763 20.76C154.763 19.528 155.051 18.424 155.627 17.448C156.203 16.472 156.987 15.696 157.979 15.12C158.971 14.544 160.083 14.256 161.315 14.256C162.307 14.256 163.251 14.448 164.147 14.832C165.059 15.216 165.843 15.768 166.499 16.488L164.483 18.624C164.019 18.112 163.531 17.736 163.019 17.496C162.523 17.24 161.979 17.112 161.387 17.112C160.747 17.112 160.171 17.272 159.659 17.592C159.163 17.912 158.763 18.344 158.459 18.888C158.171 19.432 158.027 20.056 158.027 20.76C158.027 21.432 158.171 22.048 158.459 22.608C158.763 23.152 159.179 23.584 159.707 23.904C160.235 24.208 160.819 24.36 161.459 24.36C162.019 24.36 162.539 24.248 163.019 24.024C163.515 23.784 163.987 23.432 164.435 22.968L166.403 25.032C165.763 25.72 164.995 26.264 164.099 26.664C163.203 27.048 162.275 27.24 161.315 27.24Z" fill="white"/>
<defs>
<clipPath id="clip0_1503_3425">
<rect width="32" height="32" fill="white" transform="translate(0 4)"/>
</clipPath>
<clipPath id="clip1_1503_3425">
<rect width="32" height="32" fill="white" transform="translate(0 4)"/>
</clipPath>
</defs>
</svg>
