<svg width="39" height="39" viewBox="0 0 39 39" fill="none" xmlns="http://www.w3.org/2000/svg">
<circle cx="19.5" cy="19.5" r="19.5" fill="#8358FF"/>
<path d="M18.55 11C16.4514 11 14.75 12.6915 14.75 14.7778H13.8C11.7014 14.7778 10 16.4693 10 18.5556V24.2222C10 26.3085 11.7014 28 13.8 28H25.2C27.2986 28 29 26.3085 29 24.2222V18.5556C29 16.4693 27.2986 14.7778 25.2 14.7778H24.25C24.25 12.6915 22.5486 11 20.45 11H18.55ZM18.55 12.8889H20.45C21.4994 12.8889 22.35 13.7342 22.35 14.7778H16.65C16.65 13.7342 17.5006 12.8889 18.55 12.8889ZM13.8 16.6667H25.2C26.2494 16.6667 27.1 17.5119 27.1 18.5556V18.8209L22.0234 20.503C20.6601 20.9554 18.3399 20.9554 16.9766 20.503L11.9 18.8209V18.5556C11.9 17.5119 12.7506 16.6667 13.8 16.6667ZM11.9 20.7986L16.3829 22.304C18.1361 22.8849 20.8639 22.8849 22.6171 22.304L27.1 20.7986V24.2222C27.1 25.2658 26.2494 26.1111 25.2 26.1111H13.8C12.7506 26.1111 11.9 25.2658 11.9 24.2222V20.7986Z" fill="white"/>
</svg>
