<svg width="20" height="20" viewBox="0 0 20 20" fill="none" xmlns="http://www.w3.org/2000/svg">
<path d="M10.6326 1.13066L12.7357 5.92754C12.8148 6.10807 12.9409 6.26405 13.1009 6.37921C13.2608 6.49437 13.4488 6.56448 13.6451 6.58223L18.7685 7.0416C19.3482 7.12598 19.5794 7.83692 19.1591 8.24629L15.2997 11.4885C14.9872 11.751 14.8451 12.1635 14.931 12.5619L16.0529 17.8135C16.1513 18.39 15.5466 18.8307 15.0279 18.5572L10.556 15.9385C10.3873 15.8395 10.1953 15.7873 9.99975 15.7873C9.80418 15.7873 9.61216 15.8395 9.4435 15.9385L4.97162 18.5557C4.45444 18.8275 3.84819 18.3885 3.94662 17.8119L5.0685 12.5604C5.15287 12.1619 5.01225 11.7494 4.69975 11.4869L0.83881 8.24785C0.42006 7.84004 0.65131 7.12754 1.22944 7.04316L6.35287 6.58379C6.54917 6.56604 6.73711 6.49593 6.89707 6.38077C7.05702 6.26561 7.18314 6.10963 7.26225 5.9291L9.36537 1.13223C9.62631 0.607227 10.3732 0.607227 10.6326 1.13066Z" fill="#FDD835"/>
<path d="M10.4792 6.21328L10.1229 2.67891C10.1089 2.48203 10.0683 2.14453 10.3839 2.14453C10.6339 2.14453 10.7698 2.66484 10.7698 2.66484L11.8386 5.50234C12.2417 6.58203 12.0761 6.95234 11.687 7.17109C11.2401 7.42109 10.5808 7.22578 10.4792 6.21328Z" fill="#FFFF8D"/>
<path d="M14.8866 11.1742L17.9522 8.78203C18.1038 8.65547 18.3772 8.45391 18.1584 8.22422C17.985 8.04297 17.5163 8.3039 17.5163 8.3039L14.8334 9.35234C14.0334 9.6289 13.5022 10.0383 13.4553 10.5539C13.3944 11.2414 14.0116 11.7711 14.8866 11.1742Z" fill="#F4B400"/>
</svg>
